<svg width="779" height="672" viewBox="0 0 779 672" fill="none" xmlns="http://www.w3.org/2000/svg">
<g clip-path="url(#clip0)">
<path d="M575.419 15.968H547.721C548.995 19.0927 549.481 22.483 549.137 25.84C548.793 29.1971 547.629 32.4179 545.748 35.2188C543.867 38.0197 541.326 40.3148 538.35 41.9017C535.373 43.4886 532.052 44.3188 528.68 44.3191H407.12C403.748 44.3188 400.427 43.4886 397.45 41.9017C394.474 40.3148 391.933 38.0197 390.052 35.2188C388.171 32.4179 387.007 29.1971 386.663 25.84C386.319 22.483 386.805 19.0927 388.079 15.968H362.209C356.524 15.968 350.895 17.0884 345.643 19.2652C340.391 21.4419 335.619 24.6325 331.6 28.6547C327.58 32.6768 324.391 37.4518 322.216 42.7071C320.04 47.9623 318.921 53.5948 318.921 59.283V608.264C318.921 613.952 320.04 619.585 322.216 624.84C324.391 630.095 327.58 634.87 331.6 638.892C335.619 642.915 340.391 646.105 345.643 648.282C350.895 650.459 356.524 651.579 362.209 651.579H575.419C581.103 651.579 586.732 650.459 591.984 648.282C597.236 646.105 602.009 642.915 606.028 638.892C610.048 634.87 613.236 630.095 615.412 624.84C617.587 619.585 618.707 613.952 618.707 608.264V59.283C618.707 53.5948 617.587 47.9623 615.412 42.7071C613.236 37.4518 610.048 32.6768 606.028 28.6547C602.008 24.6325 597.236 21.4419 591.984 19.2652C586.732 17.0884 581.103 15.968 575.419 15.968Z" fill="#E6E6E6"/>
<path d="M573.08 667.547H360.892C345.291 667.529 330.335 661.32 319.303 650.282C308.272 639.244 302.066 624.278 302.049 608.667V58.8796C302.066 43.2691 308.272 28.3031 319.303 17.2648C330.335 6.22659 345.292 0.017592 360.892 0H573.08C588.681 0.0176179 603.637 6.22666 614.669 17.2649C625.7 28.3032 631.905 43.2692 631.923 58.8796V158.217H635.579V231.307H631.923V608.667C631.905 624.278 625.7 639.244 614.669 650.282C603.637 661.32 588.681 667.529 573.08 667.547ZM360.892 1.75559C345.757 1.77265 331.246 7.79653 320.543 18.5056C309.841 29.2148 303.82 43.7346 303.803 58.8796V608.667C303.82 623.812 309.841 638.332 320.543 649.041C331.246 659.751 345.757 665.774 360.892 665.792H573.08C588.215 665.774 602.726 659.75 613.429 649.041C624.131 638.332 630.151 623.812 630.168 608.667V229.552H633.825V159.973H630.168V58.8796C630.151 43.7347 624.131 29.215 613.429 18.5059C602.726 7.79679 588.215 1.77283 573.08 1.75559H360.892Z" fill="#E6E6E6"/>
<path d="M245.771 356.724L259.808 378.478L305.455 378.114C305.455 378.114 324.644 367.27 328.502 381.567C329.824 386.464 309.737 387.789 307.845 387.904C303.117 388.19 255.956 396.378 253.044 392.185C250.133 387.993 234.818 373.345 234.818 373.345L245.771 356.724Z" fill="#FFB8B8"/>
<path d="M378.462 103.289C377.648 103.29 376.867 103.614 376.292 104.19C375.716 104.766 375.392 105.547 375.391 106.362V287.187C375.392 288.002 375.716 288.783 376.292 289.359C376.867 289.935 377.648 290.259 378.462 290.26H559.176C559.99 290.259 560.77 289.935 561.346 289.359C561.921 288.783 562.245 288.002 562.246 287.187V106.362C562.245 105.547 561.921 104.766 561.346 104.19C560.77 103.614 559.99 103.29 559.176 103.289H378.462Z" fill="white"/>
<path d="M543.329 316.141H510.087C508.008 297.637 512.595 283.845 510.087 276.225H543.329C542.052 289.5 542.052 302.866 543.329 316.141Z" fill="#50FA7B"/>
<path d="M608.736 360.922H328.892V487.325H608.736V360.922Z" fill="#CCCCCC"/>
<path d="M526.717 194.484C526.717 205.911 523.331 217.081 516.986 226.582C510.642 236.084 501.624 243.489 491.073 247.862C480.522 252.235 468.913 253.379 457.712 251.15C446.511 248.921 436.223 243.418 428.148 235.338C420.073 227.258 414.573 216.963 412.345 205.755C410.118 194.548 411.261 182.931 415.631 172.373C420.002 161.816 427.402 152.793 436.898 146.444C446.393 140.096 457.557 136.707 468.977 136.707C476.56 136.703 484.07 138.195 491.077 141.098C498.084 144 504.451 148.256 509.813 153.621C515.176 158.987 519.429 165.358 522.329 172.369C525.23 179.381 526.721 186.895 526.717 194.484Z" fill="#50FA7B"/>
<path d="M322.492 354.118C321.91 354.119 321.353 354.351 320.942 354.762C320.53 355.173 320.299 355.731 320.298 356.313V477.449C320.299 478.031 320.53 478.588 320.942 479C321.353 479.411 321.91 479.643 322.492 479.643H597.071C597.653 479.643 598.21 479.411 598.622 479C599.033 478.588 599.264 478.031 599.265 477.449V356.313C599.264 355.731 599.033 355.173 598.622 354.762C598.21 354.35 597.653 354.119 597.071 354.118H322.492Z" fill="white"/>
<path d="M516.305 380.404C515.956 380.405 515.622 380.544 515.375 380.79C515.128 381.037 514.99 381.372 514.989 381.721V388.105C514.99 388.454 515.128 388.788 515.375 389.035C515.622 389.282 515.956 389.421 516.305 389.421H553.873C554.222 389.421 554.556 389.282 554.803 389.035C555.05 388.788 555.188 388.454 555.189 388.105V381.721C555.188 381.372 555.05 381.037 554.803 380.79C554.556 380.544 554.222 380.405 553.873 380.404H516.305Z" fill="#50FA7B"/>
<path d="M374.058 380.404C373.709 380.405 373.374 380.544 373.128 380.79C372.881 381.037 372.742 381.372 372.742 381.721V388.105C372.742 388.454 372.881 388.788 373.128 389.035C373.374 389.282 373.709 389.421 374.058 389.421H385.002C385.351 389.421 385.685 389.282 385.932 389.035C386.179 388.788 386.317 388.454 386.318 388.105V381.721C386.317 381.372 386.179 381.037 385.932 380.79C385.685 380.544 385.351 380.405 385.002 380.404H374.058Z" fill="#50FA7B"/>
<path d="M345.152 380.404C344.803 380.405 344.469 380.544 344.222 380.79C343.975 381.037 343.836 381.372 343.836 381.721V388.105C343.836 388.454 343.975 388.788 344.222 389.035C344.469 389.282 344.803 389.421 345.152 389.421H356.096C356.445 389.421 356.779 389.282 357.026 389.035C357.272 388.788 357.411 388.454 357.412 388.105V381.721C357.411 381.372 357.272 381.037 357.026 380.79C356.779 380.544 356.445 380.405 356.096 380.404H345.152Z" fill="#6C63FF"/>
<path d="M403.724 380.404C403.375 380.405 403.041 380.544 402.794 380.79C402.547 381.037 402.408 381.372 402.408 381.721V388.105C402.408 388.454 402.547 388.788 402.794 389.035C403.041 389.282 403.375 389.421 403.724 389.421H498.343C498.692 389.421 499.026 389.282 499.273 389.035C499.52 388.788 499.658 388.454 499.659 388.105V381.721C499.658 381.372 499.52 381.037 499.273 380.79C499.026 380.544 498.692 380.405 498.343 380.404H403.724Z" fill="#6C63FF"/>
<path d="M425.784 444.34C425.435 444.341 425.1 444.48 424.854 444.726C424.607 444.973 424.468 445.308 424.468 445.657V452.042C424.468 452.391 424.607 452.725 424.854 452.972C425.1 453.219 425.435 453.358 425.784 453.358H436.728C437.077 453.358 437.411 453.219 437.658 452.972C437.905 452.725 438.043 452.391 438.044 452.042V445.657C438.043 445.308 437.905 444.973 437.658 444.726C437.411 444.48 437.077 444.341 436.728 444.34H425.784Z" fill="#50FA7B"/>
<path d="M396.878 444.34C396.529 444.341 396.195 444.48 395.948 444.726C395.701 444.973 395.563 445.308 395.562 445.657V452.042C395.563 452.391 395.701 452.725 395.948 452.972C396.195 453.219 396.529 453.358 396.878 453.358H407.822C408.171 453.358 408.506 453.219 408.752 452.972C408.999 452.725 409.138 452.391 409.138 452.042V445.657C409.138 445.308 408.999 444.973 408.752 444.726C408.506 444.48 408.171 444.341 407.822 444.34H396.878Z" fill="#50FA7B"/>
<path d="M455.45 444.34C455.101 444.341 454.767 444.48 454.52 444.726C454.273 444.973 454.135 445.308 454.134 445.657V452.042C454.135 452.391 454.273 452.725 454.52 452.972C454.767 453.219 455.101 453.358 455.45 453.358H550.069C550.418 453.358 550.753 453.219 550.999 452.972C551.246 452.725 551.385 452.391 551.385 452.042V445.657C551.385 445.308 551.246 444.973 550.999 444.726C550.753 444.48 550.418 444.341 550.069 444.34H455.45Z" fill="#6C63FF"/>
<path d="M398.4 402.477C398.051 402.477 397.716 402.616 397.47 402.863C397.223 403.11 397.084 403.445 397.084 403.794V410.177C397.084 410.527 397.223 410.861 397.47 411.108C397.716 411.355 398.051 411.494 398.4 411.494H435.967C436.316 411.494 436.651 411.355 436.897 411.108C437.144 410.861 437.283 410.527 437.283 410.177V403.794C437.283 403.445 437.144 403.11 436.897 402.863C436.651 402.616 436.316 402.477 435.967 402.477H398.4Z" fill="#50FA7B"/>
<path d="M342.87 402.477C342.521 402.477 342.186 402.616 341.94 402.863C341.693 403.11 341.554 403.445 341.554 403.794V410.177C341.554 410.527 341.693 410.861 341.94 411.108C342.186 411.355 342.521 411.494 342.87 411.494H380.437C380.786 411.494 381.121 411.355 381.367 411.108C381.614 410.861 381.753 410.527 381.753 410.177V403.794C381.753 403.445 381.614 403.11 381.367 402.863C381.121 402.616 380.786 402.477 380.437 402.477H342.87Z" fill="#6C63FF"/>
<path d="M565.749 402.477C565.4 402.477 565.066 402.616 564.819 402.863C564.572 403.11 564.434 403.445 564.433 403.794V410.177C564.434 410.527 564.572 410.861 564.819 411.108C565.066 411.355 565.4 411.494 565.749 411.494H576.693C577.042 411.494 577.377 411.355 577.623 411.108C577.87 410.861 578.009 410.527 578.009 410.177V403.794C578.009 403.445 577.87 403.11 577.623 402.863C577.377 402.616 577.042 402.477 576.693 402.477H565.749Z" fill="#50FA7B"/>
<path d="M453.169 402.477C452.82 402.477 452.485 402.616 452.239 402.863C451.992 403.11 451.853 403.445 451.853 403.794V410.177C451.853 410.527 451.992 410.861 452.239 411.108C452.485 411.355 452.82 411.494 453.169 411.494H547.787C548.136 411.494 548.47 411.355 548.717 411.108C548.964 410.861 549.102 410.527 549.103 410.177V403.794C549.102 403.445 548.964 403.11 548.717 402.863C548.47 402.616 548.136 402.477 547.787 402.477H453.169Z" fill="#50FA7B"/>
<path d="M483.596 423.789C483.247 423.789 482.912 423.928 482.666 424.175C482.419 424.422 482.28 424.757 482.28 425.106V431.49C482.28 431.839 482.419 432.173 482.666 432.42C482.912 432.667 483.247 432.806 483.596 432.806H521.163C521.512 432.806 521.847 432.667 522.094 432.42C522.34 432.173 522.479 431.839 522.479 431.49V425.106C522.479 424.757 522.34 424.422 522.094 424.175C521.847 423.928 521.512 423.789 521.163 423.789H483.596Z" fill="#50FA7B"/>
<path d="M539.126 423.789C538.777 423.789 538.442 423.928 538.196 424.175C537.949 424.422 537.81 424.757 537.81 425.106V431.49C537.81 431.839 537.949 432.173 538.196 432.42C538.442 432.667 538.777 432.806 539.126 432.806H576.693C577.042 432.806 577.377 432.667 577.623 432.42C577.87 432.173 578.009 431.839 578.009 431.49V425.106C578.009 424.757 577.87 424.422 577.623 424.175C577.377 423.928 577.042 423.789 576.693 423.789H539.126Z" fill="#50FA7B"/>
<path d="M342.87 423.789C342.521 423.789 342.186 423.928 341.94 424.175C341.693 424.422 341.554 424.757 341.554 425.106V431.49C341.554 431.839 341.693 432.173 341.94 432.42C342.186 432.667 342.521 432.806 342.87 432.806H353.814C354.163 432.806 354.497 432.667 354.744 432.42C354.991 432.173 355.129 431.839 355.13 431.49V425.106C355.129 424.757 354.991 424.422 354.744 424.175C354.497 423.928 354.163 423.789 353.814 423.789H342.87Z" fill="#6C63FF"/>
<path d="M371.776 423.789C371.427 423.789 371.092 423.928 370.846 424.175C370.599 424.422 370.46 424.757 370.46 425.106V431.49C370.46 431.839 370.599 432.173 370.846 432.42C371.092 432.667 371.427 432.806 371.776 432.806H466.394C466.743 432.806 467.078 432.667 467.324 432.42C467.571 432.173 467.71 431.839 467.71 431.49V425.106C467.71 424.757 467.571 424.422 467.324 424.175C467.078 423.928 466.743 423.789 466.394 423.789H371.776Z" fill="#6C63FF"/>
<path d="M474.874 168.032C474.874 168.032 486.175 163.994 493.44 180.148C500.705 196.302 512.005 214.071 512.005 214.071L505.548 215.687C505.548 215.687 503.933 204.379 499.897 202.763L501.512 217.302C501.512 217.302 453.08 234.264 431.285 215.687L432.092 210.033C432.092 210.033 428.863 210.84 428.863 215.687L426.442 213.263C426.442 213.263 428.863 208.417 436.128 201.956C440.897 197.714 442.535 189.646 443.098 184.601C443.52 180.389 445.204 176.402 447.93 173.165C452.758 167.566 461.555 161.615 474.874 168.032Z" fill="#2F2E41"/>
<path d="M467.975 217.862C479.515 217.862 488.87 208.501 488.87 196.954C488.87 185.407 479.515 176.046 467.975 176.046C456.434 176.046 447.079 185.407 447.079 196.954C447.079 208.501 456.434 217.862 467.975 217.862Z" fill="#FFB8B8"/>
<path d="M492.937 199.491C484.891 194.199 478.378 188.105 474.07 180.855C474.07 180.855 459.305 195.764 450.282 196.509C441.259 197.255 449.462 178.619 449.462 178.619L465.867 174.892L481.453 176.383L493.757 183.837L492.937 199.491Z" fill="#2F2E41"/>
<path d="M475.837 213.453H460.046V229.253H475.837V213.453Z" fill="#FFB8B8"/>
<path d="M498.944 243.877C489.389 249.677 478.357 252.579 467.187 252.232C456.016 251.884 445.186 248.302 436.01 241.919C437.934 237.869 440.966 234.447 444.754 232.049C448.543 229.652 452.932 228.378 457.415 228.375H476.714C481.559 228.374 486.288 229.86 490.262 232.632C494.237 235.404 497.267 239.329 498.944 243.877Z" fill="#2F2E41"/>
<path d="M779 668.438H0V670.405H779V668.438Z" fill="#3F3D56"/>
<path d="M549.853 511.912H583.095C585.174 496.561 580.587 482.23 583.095 471.997H549.853C543.595 485.302 543.595 498.607 549.853 511.912Z" fill="#6C63FF"/>
<path d="M523.768 504.657H490.525C491.772 489.309 495.791 474.978 490.525 464.742H523.768C530.026 478.047 530.026 491.352 523.768 504.657Z" fill="#50FA7B"/>
<path d="M251.447 277.448C251.447 277.448 262.871 273.365 270.215 289.695C277.559 306.024 288.982 323.987 288.982 323.987L282.454 325.62C282.454 325.62 280.822 314.189 276.743 312.556L278.374 327.252C278.374 327.252 229.416 344.398 207.385 325.62L208.201 319.904C208.201 319.904 204.937 320.721 204.937 325.62L202.489 323.17C202.489 323.17 204.937 318.271 212.281 311.739C217.101 307.452 218.757 299.296 219.327 294.196C219.753 289.938 221.456 285.909 224.211 282.636C229.091 276.976 237.984 270.961 251.447 277.448Z" fill="#2F2E41"/>
<path d="M185.349 592.231L156.899 634.442L183.387 660.947L186.82 654.075L180.934 640.332C180.934 640.332 181.915 627.571 185.349 624.135C188.782 620.699 203.989 600.085 203.989 600.085L185.349 592.231Z" fill="#FFB8B8"/>
<path d="M221.647 455.782C221.647 455.782 216.253 464.326 227.535 501.138C227.535 501.138 174.911 590.009 183.249 595.898C191.588 601.788 214.154 614.823 220.04 610.897C225.926 606.97 268.737 473.943 268.737 473.943L221.647 455.782Z" fill="#2F2E41"/>
<path d="M162.049 626.835L153.465 635.424C149.05 639.842 146.107 646.222 154.446 651.621C162.785 657.02 191.725 677.144 201.536 670.764C211.346 664.383 189.763 658.493 189.763 658.493C189.763 658.493 186.195 645.252 184.3 648.191C182.406 651.131 182.406 657.02 182.406 657.02L162.049 626.835Z" fill="#2F2E41"/>
<path d="M265.794 615.3C265.794 615.3 281.491 644.259 281.491 647.695C281.491 651.13 280.51 660.947 280.51 660.947L310.431 668.309L320.732 663.401L317.299 654.566C317.299 654.566 298.659 648.186 294.735 635.915C290.811 623.644 286.396 610.883 286.396 610.883L265.794 615.3Z" fill="#FFB8B8"/>
<path d="M247.645 327.186C259.023 327.186 268.247 317.957 268.247 306.572C268.247 295.187 259.023 285.957 247.645 285.957C236.267 285.957 227.043 295.187 227.043 306.572C227.043 317.957 236.267 327.186 247.645 327.186Z" fill="#FFB8B8"/>
<path d="M253.041 324.241L243.205 352.52L221.647 342.893C221.647 342.893 236.363 320.315 236.363 317.37L253.041 324.241Z" fill="#FFB8B8"/>
<path d="M255.984 424.86H229.986C229.986 424.86 211.346 453.328 222.138 483.268C224.164 489.361 225.811 495.573 227.068 501.869C230.834 519.331 234.583 542.986 238.425 564.722C243.822 595.253 249.402 622 255.468 622.486C267.731 623.468 291.578 623.304 291.578 618.396C291.578 613.487 275.605 471.489 275.605 471.489L272.171 465.599L271.522 439.943C271.419 435.895 269.735 432.048 266.83 429.228C263.925 426.408 260.031 424.84 255.984 424.86H255.984Z" fill="#2F2E41"/>
<path d="M281.736 647.449C281.736 647.449 276.095 657.02 277.567 663.892C279.038 670.763 281.491 669.782 292.282 670.763C303.074 671.745 339.863 671.745 339.863 664.873C339.863 658.002 311.164 649.078 311.043 651.822C310.922 654.566 309.941 659.965 312.884 660.947C315.827 661.929 313.129 661.192 313.129 661.192L281.736 647.449Z" fill="#2F2E41"/>
<path d="M231.934 438.54C235.77 438.54 244.021 428.68 248.338 433.001C251.479 436.144 254.144 439.162 256.495 441.825C263.244 449.47 269.144 456.477 273.244 451.45C273.864 450.69 271.78 452.445 273.518 451.262C274.238 450.771 274.788 450.068 275.092 449.25C275.395 448.432 275.437 447.54 275.212 446.697C269.263 428.048 265.558 410.182 270.289 395.259C270.64 394.074 270.808 392.843 270.786 391.607C270.787 391.427 270.795 391.246 270.811 391.064C271.061 388.311 270.999 378.447 259.705 367.146C249.383 356.818 247.402 350.471 247.141 347.607C247.08 346.94 230.441 329.666 230.441 329.666C229.57 329.3 228.6 329.24 227.691 329.496C226.781 329.751 225.985 330.307 225.431 331.073L220.101 338.406C214.308 349.884 211.779 362.735 212.792 375.554C214.235 392.193 216.74 425.098 218.798 436.968C218.968 438.05 219.542 439.027 220.402 439.703C220.995 440.163 221.702 440.452 222.448 440.541C223.193 440.629 223.948 440.512 224.632 440.204C226.921 439.138 229.41 438.571 231.934 438.54Z" fill="#2F2E41"/>
<path opacity="0.2" d="M237.883 566.273L228.215 501.82L236.078 571.399L237.883 566.273Z" fill="black"/>
<path d="M250.158 375.158L264.194 396.912L309.841 396.548C309.841 396.548 329.03 385.704 332.889 400.001C334.21 404.898 314.123 406.223 312.232 406.337C307.503 406.624 260.342 414.812 257.431 410.619C254.519 406.427 239.204 391.778 239.204 391.778L250.158 375.158Z" fill="#FFB8B8"/>
<path d="M229.165 359.896C229.165 359.896 237.135 354.697 248.078 363.943C259.02 373.189 261.209 381.461 261.209 381.461L235.433 396.79C235.433 396.79 210.253 369.962 229.165 359.896Z" fill="#2F2E41"/>
<path d="M269.706 307.492C261.573 302.143 254.99 295.983 250.635 288.654C250.635 288.654 235.709 303.725 226.588 304.478C217.467 305.232 225.759 286.394 225.759 286.394L242.343 282.626L258.098 284.133L270.536 291.668L269.706 307.492Z" fill="#2F2E41"/>
<path d="M227.136 310.01C228.347 310.01 229.329 308.242 229.329 306.06C229.329 303.878 228.347 302.11 227.136 302.11C225.925 302.11 224.943 303.878 224.943 306.06C224.943 308.242 225.925 310.01 227.136 310.01Z" fill="#FFB8B8"/>
</g>
<defs>
<clipPath id="clip0">
<rect width="779" height="672" fill="white"/>
</clipPath>
</defs>
</svg>
