<svg width="817" height="470" viewBox="0 0 817 470" fill="none" xmlns="http://www.w3.org/2000/svg">
<g clip-path="url(#clip0)">
<path d="M177.021 417.198C200.487 417.198 219.51 398.152 219.51 374.657C219.51 351.163 200.487 332.117 177.021 332.117C153.555 332.117 134.533 351.163 134.533 374.657C134.533 398.152 153.555 417.198 177.021 417.198Z" fill="#F2F2F2"/>
<path d="M183.93 410.972C207.396 410.972 226.419 391.926 226.419 368.432C226.419 344.938 207.396 325.892 183.93 325.892C160.464 325.892 141.441 344.938 141.441 368.432C141.441 391.926 160.464 410.972 183.93 410.972Z" fill="#50FA7B"/>
<path d="M743.847 321.362H218.148V322.798H743.847V321.362Z" fill="#3F3D56"/>
<path d="M490.408 13.3933H303.818V9.54285H219.21V13.3933H31.8504C30.1929 13.3933 28.5517 13.7202 27.0204 14.3552C25.4891 14.9903 24.0977 15.9211 22.9257 17.0945C21.7537 18.2679 20.824 19.661 20.1897 21.1942C19.5554 22.7273 19.229 24.3706 19.229 26.0301V281.84C19.229 285.191 20.5587 288.405 22.9257 290.775C25.2927 293.145 28.503 294.477 31.8504 294.477H490.408C493.756 294.477 496.966 293.145 499.333 290.775C501.7 288.405 503.03 285.191 503.03 281.84V26.0301C503.03 24.3706 502.703 22.7273 502.069 21.1942C501.435 19.661 500.505 18.2679 499.333 17.0945C498.161 15.9211 496.77 14.9903 495.238 14.3552C493.707 13.7202 492.066 13.3933 490.408 13.3933Z" fill="#3F3D56"/>
<path d="M486.108 35.726H36.1505V289.856H486.108V35.726Z" fill="#6C63FF"/>
<path d="M260.745 28.7952C263.293 28.7952 265.36 26.7265 265.36 24.1746C265.36 21.6228 263.293 19.5541 260.745 19.5541C258.196 19.5541 256.13 21.6228 256.13 24.1746C256.13 26.7265 258.196 28.7952 260.745 28.7952Z" fill="#6C63FF"/>
<path opacity="0.1" d="M357.428 289.856H36.1506V35.7262L357.428 289.856Z" fill="black"/>
<path d="M106.555 270.839C130.442 270.839 149.807 251.452 149.807 227.536C149.807 203.62 130.442 184.232 106.555 184.232C82.6683 184.232 63.304 203.62 63.304 227.536C63.304 251.452 82.6683 270.839 106.555 270.839Z" fill="#F2F2F2"/>
<path d="M407.763 172.78H365.732V181.574H407.763V172.78Z" fill="#3F3D56"/>
<path d="M458.577 104.319H314.919V108.087H458.577V104.319Z" fill="#3F3D56"/>
<path d="M458.577 116.252H314.919V120.021H458.577V116.252Z" fill="#3F3D56"/>
<path d="M458.577 128.186H314.919V131.955H458.577V128.186Z" fill="#3F3D56"/>
<path d="M458.577 140.12H314.919V143.888H458.577V140.12Z" fill="#3F3D56"/>
<path d="M458.577 152.053H314.919V155.822H458.577V152.053Z" fill="#3F3D56"/>
<path d="M458.577 40.8817H441.011V58.4682H458.577V40.8817Z" fill="#F2F2F2"/>
<path d="M466.732 66.6334H445.403V45.2783H466.732V66.6334ZM446.33 65.7049H465.805V46.2068H446.33V65.7049Z" fill="#3F3D56"/>
<path d="M515.663 285.236H471.75V282.068C471.75 281.985 471.734 281.904 471.703 281.827C471.671 281.751 471.625 281.682 471.567 281.624C471.509 281.565 471.439 281.519 471.363 281.488C471.287 281.456 471.206 281.44 471.123 281.44H456.067C455.985 281.44 455.903 281.456 455.827 281.488C455.751 281.519 455.682 281.565 455.624 281.624C455.565 281.682 455.519 281.751 455.488 281.827C455.456 281.904 455.44 281.985 455.44 282.068V285.236H446.03V282.068C446.03 281.985 446.014 281.904 445.982 281.827C445.951 281.751 445.905 281.682 445.846 281.624C445.788 281.565 445.719 281.519 445.643 281.488C445.567 281.456 445.485 281.44 445.403 281.44H430.347C430.264 281.44 430.183 281.456 430.107 281.488C430.031 281.519 429.962 281.565 429.903 281.624C429.845 281.682 429.799 281.751 429.767 281.827C429.736 281.904 429.72 281.985 429.72 282.068V285.236H420.31V282.068C420.31 281.985 420.293 281.904 420.262 281.827C420.23 281.751 420.184 281.682 420.126 281.624C420.068 281.565 419.999 281.519 419.922 281.488C419.846 281.456 419.765 281.44 419.682 281.44H404.626C404.544 281.44 404.462 281.456 404.386 281.488C404.31 281.519 404.241 281.565 404.183 281.624C404.125 281.682 404.078 281.751 404.047 281.827C404.015 281.904 403.999 281.985 403.999 282.068V285.236H394.589V282.068C394.589 281.985 394.573 281.904 394.541 281.827C394.51 281.751 394.464 281.682 394.405 281.624C394.347 281.565 394.278 281.519 394.202 281.488C394.126 281.456 394.044 281.44 393.962 281.44H378.906C378.824 281.44 378.742 281.456 378.666 281.488C378.59 281.519 378.521 281.565 378.462 281.624C378.404 281.682 378.358 281.751 378.326 281.827C378.295 281.904 378.279 281.985 378.279 282.068V285.236H368.869V282.068C368.869 281.985 368.853 281.904 368.821 281.827C368.789 281.751 368.743 281.682 368.685 281.624C368.627 281.565 368.558 281.519 368.482 281.488C368.405 281.456 368.324 281.44 368.241 281.44H353.186C353.103 281.44 353.022 281.456 352.945 281.488C352.869 281.519 352.8 281.565 352.742 281.624C352.684 281.682 352.637 281.751 352.606 281.827C352.574 281.904 352.558 281.985 352.558 282.068V285.236H343.148V282.068C343.148 281.985 343.132 281.904 343.101 281.827C343.069 281.751 343.023 281.682 342.965 281.624C342.906 281.565 342.837 281.519 342.761 281.488C342.685 281.456 342.603 281.44 342.521 281.44H327.465C327.383 281.44 327.301 281.456 327.225 281.488C327.149 281.519 327.08 281.565 327.022 281.624C326.963 281.682 326.917 281.751 326.886 281.827C326.854 281.904 326.838 281.985 326.838 282.068V285.236H317.428V282.068C317.428 281.985 317.412 281.904 317.38 281.827C317.349 281.751 317.302 281.682 317.244 281.624C317.186 281.565 317.117 281.519 317.041 281.488C316.964 281.456 316.883 281.44 316.801 281.44H198.863C198.781 281.44 198.699 281.456 198.623 281.488C198.547 281.519 198.478 281.565 198.419 281.624C198.361 281.682 198.315 281.751 198.283 281.827C198.252 281.904 198.236 281.985 198.236 282.068V285.236H188.826V282.068C188.826 281.985 188.809 281.904 188.778 281.827C188.746 281.751 188.7 281.682 188.642 281.624C188.584 281.565 188.515 281.519 188.438 281.488C188.362 281.456 188.281 281.44 188.198 281.44H173.142C173.06 281.44 172.979 281.456 172.902 281.488C172.826 281.519 172.757 281.565 172.699 281.624C172.641 281.682 172.594 281.751 172.563 281.827C172.531 281.904 172.515 281.985 172.515 282.068V285.236H163.105V282.068C163.105 281.985 163.089 281.904 163.057 281.827C163.026 281.751 162.98 281.682 162.921 281.624C162.863 281.565 162.794 281.519 162.718 281.488C162.642 281.456 162.56 281.44 162.478 281.44H147.422C147.34 281.44 147.258 281.456 147.182 281.488C147.106 281.519 147.037 281.565 146.978 281.624C146.92 281.682 146.874 281.751 146.842 281.827C146.811 281.904 146.795 281.985 146.795 282.068V285.236H137.385V282.068C137.385 281.985 137.369 281.904 137.337 281.827C137.305 281.751 137.259 281.682 137.201 281.624C137.143 281.565 137.074 281.519 136.998 281.488C136.921 281.456 136.84 281.44 136.757 281.44H121.702C121.619 281.44 121.538 281.456 121.462 281.488C121.385 281.519 121.316 281.565 121.258 281.624C121.2 281.682 121.154 281.751 121.122 281.827C121.09 281.904 121.074 281.985 121.074 282.068V285.236H111.664V282.068C111.664 281.985 111.648 281.904 111.617 281.827C111.585 281.751 111.539 281.682 111.481 281.624C111.422 281.565 111.353 281.519 111.277 281.488C111.201 281.456 111.119 281.44 111.037 281.44H95.9811C95.8988 281.44 95.8172 281.456 95.7411 281.488C95.665 281.519 95.5958 281.565 95.5375 281.624C95.4793 281.682 95.4331 281.751 95.4016 281.827C95.37 281.904 95.3538 281.985 95.3538 282.068V285.236H85.9439V282.068C85.9439 281.985 85.9277 281.904 85.8962 281.827C85.8646 281.751 85.8184 281.682 85.7602 281.624C85.7019 281.565 85.6328 281.519 85.5566 281.488C85.4805 281.456 85.399 281.44 85.3166 281.44H70.2607C70.1783 281.44 70.0967 281.456 70.0206 281.488C69.9445 281.519 69.8754 281.565 69.8171 281.624C69.7589 281.682 69.7127 281.751 69.6811 281.827C69.6496 281.904 69.6334 281.985 69.6334 282.068V285.236H60.2235V282.068C60.2235 281.985 60.2072 281.904 60.1757 281.827C60.1442 281.751 60.098 281.682 60.0397 281.624C59.9815 281.565 59.9123 281.519 59.8362 281.488C59.7601 281.456 59.6785 281.44 59.5961 281.44H44.5403C44.4579 281.44 44.3763 281.456 44.3002 281.488C44.2241 281.519 44.1549 281.565 44.0967 281.624C44.0384 281.682 43.9922 281.751 43.9607 281.827C43.9292 281.904 43.9129 281.985 43.913 282.068V285.236H15.0559C11.0628 285.236 7.23329 286.824 4.40977 289.651C1.58624 292.478 3.8042e-06 296.312 0 300.31V307.126C1.14126e-05 311.124 1.58626 314.958 4.40978 317.785C7.2333 320.612 11.0628 322.2 15.0559 322.2H515.663C519.656 322.2 523.486 320.612 526.31 317.785C529.133 314.958 530.719 311.124 530.719 307.126V300.31C530.719 296.312 529.133 292.478 526.31 289.651C523.486 286.824 519.656 285.236 515.663 285.236Z" fill="#3F3D56"/>
<path d="M117.025 254.583C106.244 254.583 95.706 251.382 86.7425 245.386C77.779 239.389 70.7928 230.866 66.6673 220.894C62.5419 210.922 61.4625 199.95 63.5656 189.364C65.6688 178.778 70.86 169.054 78.4828 161.422C86.1057 153.79 95.8178 148.592 106.391 146.486C116.964 144.381 127.924 145.461 137.883 149.592C147.843 153.722 156.356 160.717 162.345 169.691C168.334 178.666 171.531 189.217 171.531 200.01C171.515 214.479 165.767 228.35 155.548 238.581C145.33 248.811 131.476 254.566 117.025 254.583ZM117.025 146.874C106.528 146.874 96.2671 149.99 87.5394 155.829C78.8118 161.668 72.0094 169.966 67.9925 179.676C63.9756 189.385 62.9246 200.069 64.9724 210.377C67.0202 220.684 72.0748 230.152 79.4971 237.583C86.9193 245.014 96.3758 250.075 106.671 252.125C116.966 254.176 127.637 253.123 137.334 249.102C147.032 245.08 155.321 238.269 161.152 229.531C166.984 220.793 170.097 210.52 170.097 200.01C170.081 185.922 164.484 172.416 154.535 162.455C144.585 152.493 131.095 146.89 117.025 146.874Z" fill="#3F3D56"/>
<path d="M603.278 23.3679H420.395V24.804H603.278V23.3679Z" fill="#3F3D56"/>
<path d="M817 402.502H291.301V403.939H817V402.502Z" fill="#3F3D56"/>
<path d="M321.064 468.564H138.182V470H321.064V468.564Z" fill="#3F3D56"/>
<path d="M357.877 394.932H337.796V415.038H357.877V394.932Z" fill="#6C63FF"/>
<path d="M370.069 403.548H345.685V379.135H370.069V403.548ZM346.745 402.487H369.009V380.196H346.745V402.487Z" fill="#3F3D56"/>
<path d="M590.963 15.7972H570.882V35.9029H590.963V15.7972Z" fill="#6C63FF"/>
<path d="M603.155 24.414H578.771V0H603.155V24.414ZM579.831 23.3525H602.095V1.06148H579.831V23.3525Z" fill="#3F3D56"/>
<path d="M793.21 394.932H773.129V415.038H793.21V394.932Z" fill="#6C63FF"/>
<path d="M805.402 403.548H781.018V379.135H805.402V403.548ZM782.078 402.487H804.342V380.196H782.078V402.487Z" fill="#3F3D56"/>
<path d="M758.191 166.559H756.485V119.77C756.485 116.213 755.785 112.692 754.426 109.406C753.067 106.121 751.074 103.135 748.563 100.621C746.051 98.106 743.069 96.1113 739.788 94.7503C736.506 93.3894 732.989 92.689 729.437 92.689H630.427C626.875 92.689 623.358 93.3894 620.076 94.7503C616.794 96.1113 613.813 98.106 611.301 100.621C608.789 103.135 606.797 106.121 605.438 109.406C604.078 112.692 603.379 116.213 603.379 119.77V376.462C603.379 380.018 604.078 383.54 605.438 386.825C606.797 390.111 608.789 393.096 611.301 395.611C613.813 398.126 616.794 400.12 620.076 401.481C623.358 402.842 626.875 403.543 630.427 403.543H729.437C732.989 403.543 736.506 402.842 739.788 401.481C743.069 400.12 746.051 398.126 748.563 395.611C751.075 393.096 753.067 390.111 754.426 386.825C755.785 383.54 756.485 380.018 756.485 376.462V199.865H758.191V166.559Z" fill="#3F3D56"/>
<path d="M750.725 121.361V377.679C750.726 383.043 748.599 388.187 744.811 391.981C741.024 395.774 735.886 397.906 730.529 397.907H631.041C625.683 397.906 620.546 395.774 616.758 391.981C612.971 388.187 610.844 383.043 610.845 377.679V121.361C610.845 115.999 612.973 110.856 616.761 107.064C620.548 103.272 625.685 101.141 631.041 101.141H643.111C642.517 102.6 642.29 104.182 642.451 105.749C642.612 107.317 643.155 108.82 644.033 110.127C644.911 111.435 646.097 112.506 647.485 113.247C648.874 113.987 650.423 114.375 651.997 114.375H708.719C710.293 114.375 711.842 113.987 713.231 113.247C714.62 112.506 715.805 111.435 716.683 110.127C717.561 108.82 718.104 107.317 718.265 105.749C718.426 104.182 718.199 102.6 717.605 101.141H730.529C735.885 101.141 741.022 103.272 744.809 107.064C748.596 110.856 750.724 115.999 750.725 121.361Z" fill="#50FA7B"/>
<path d="M695.603 270.146H665.966V278.939H695.603V270.146Z" fill="#3F3D56"/>
<path d="M731.433 201.684H630.137V205.453H731.433V201.684Z" fill="#3F3D56"/>
<path d="M731.433 213.618H630.137V217.387H731.433V213.618Z" fill="#3F3D56"/>
<path d="M731.433 225.552H630.137V229.32H731.433V225.552Z" fill="#3F3D56"/>
<path d="M731.433 237.485H630.137V241.254H731.433V237.485Z" fill="#3F3D56"/>
<path d="M731.433 249.419H630.137V253.188H731.433V249.419Z" fill="#3F3D56"/>
<path d="M684.323 151.639H666.758V169.225H684.323V151.639Z" fill="#F2F2F2"/>
<path d="M673.482 156.036V177.391H694.812V156.036H673.482ZM693.886 176.465H674.407V156.963H693.886V176.465Z" fill="#3F3D56"/>
<path opacity="0.1" d="M750.725 350.307V377.679C750.726 383.043 748.599 388.188 744.811 391.981C741.024 395.774 735.886 397.906 730.529 397.907H631.041C625.683 397.906 620.546 395.774 616.758 391.981C612.971 388.187 610.844 383.043 610.845 377.679V239.661L694.662 305.96L696.097 307.094L711.688 319.423L713.144 320.579L750.725 350.307Z" fill="black"/>
<path d="M672.179 389.6C689.554 389.6 703.64 375.497 703.64 358.1C703.64 340.704 689.554 326.601 672.179 326.601C654.803 326.601 640.717 340.704 640.717 358.1C640.717 375.497 654.803 389.6 672.179 389.6Z" fill="#F2F2F2"/>
<path d="M229.623 470C217.283 470 205.219 466.336 194.958 459.472C184.697 452.607 176.7 442.851 171.977 431.436C167.255 420.02 166.019 407.46 168.427 395.341C170.834 383.223 176.777 372.092 185.503 363.355C194.229 354.619 205.347 348.669 217.45 346.258C229.554 343.848 242.1 345.085 253.501 349.813C264.902 354.542 274.647 362.549 281.503 372.822C288.359 383.095 292.019 395.173 292.019 407.529C292 424.092 285.42 439.97 273.723 451.682C262.025 463.393 246.166 469.981 229.623 470ZM229.623 346.494C217.566 346.494 205.78 350.074 195.755 356.78C185.73 363.487 177.917 373.019 173.303 384.172C168.689 395.325 167.481 407.597 169.833 419.436C172.186 431.276 177.992 442.151 186.517 450.687C195.043 459.223 205.905 465.036 217.73 467.391C229.556 469.746 241.813 468.537 252.952 463.918C264.091 459.298 273.612 451.475 280.31 441.438C287.009 431.401 290.584 419.6 290.584 407.529C290.566 391.347 284.137 375.833 272.709 364.391C261.28 352.949 245.785 346.512 229.623 346.494Z" fill="#3F3D56"/>
<path d="M681.452 382.397C673.65 382.397 666.024 380.081 659.537 375.741C653.05 371.402 647.995 365.234 645.009 358.017C642.024 350.801 641.242 342.86 642.764 335.199C644.286 327.538 648.043 320.501 653.56 314.978C659.076 309.455 666.105 305.693 673.756 304.169C681.408 302.646 689.339 303.428 696.547 306.417C703.755 309.406 709.915 314.468 714.249 320.962C718.584 327.457 720.897 335.093 720.897 342.904C720.885 353.374 716.726 363.413 709.331 370.817C701.936 378.22 691.91 382.385 681.452 382.397ZM681.452 304.847C673.934 304.847 666.585 307.079 660.334 311.26C654.083 315.442 649.211 321.386 646.334 328.34C643.457 335.294 642.705 342.946 644.171 350.328C645.638 357.711 649.258 364.492 654.574 369.814C659.89 375.137 666.663 378.761 674.036 380.23C681.41 381.698 689.052 380.944 695.998 378.064C702.944 375.183 708.88 370.306 713.057 364.047C717.233 357.789 719.463 350.431 719.463 342.904C719.451 332.814 715.443 323.14 708.317 316.006C701.191 308.871 691.529 304.858 681.452 304.847Z" fill="#3F3D56"/>
</g>
<defs>
<clipPath id="clip0">
<rect width="817" height="470" fill="white"/>
</clipPath>
</defs>
</svg>
