<svg width="212" height="85" viewBox="0 0 212 85" fill="none" xmlns="http://www.w3.org/2000/svg">
<path d="M96.5586 43.7539H93.7695L92.6797 50H89.2461L92.2109 32.9375L97.8594 32.9492C99.75 32.9492 101.203 33.3945 102.219 34.2852C103.242 35.1758 103.695 36.4141 103.578 38C103.414 40.3438 102.164 41.9727 99.8281 42.8867L102.23 49.8125V50H98.5742L96.5586 43.7539ZM94.2617 40.9062L96.8164 40.9297C97.7227 40.9141 98.4688 40.6719 99.0547 40.2031C99.6484 39.7266 100.004 39.082 100.121 38.2695C100.23 37.5117 100.109 36.918 99.7578 36.4883C99.4062 36.0586 98.8477 35.8281 98.082 35.7969L95.1523 35.7852L94.2617 40.9062ZM110.035 50.2344C108.926 50.2266 107.941 49.957 107.082 49.4258C106.23 48.8867 105.594 48.1523 105.172 47.2227C104.75 46.2852 104.586 45.2539 104.68 44.1289L104.715 43.6602C104.832 42.4258 105.191 41.293 105.793 40.2617C106.395 39.2305 107.168 38.4375 108.113 37.8828C109.059 37.3203 110.105 37.0547 111.254 37.0859C112.887 37.1172 114.121 37.7188 114.957 38.8906C115.801 40.0547 116.121 41.5312 115.918 43.3203L115.73 44.7617H107.961C107.93 45.582 108.129 46.2383 108.559 46.7305C108.988 47.2227 109.574 47.4766 110.316 47.4922C111.52 47.5234 112.574 47.0586 113.48 46.0977L114.992 47.9727C114.516 48.6914 113.828 49.2539 112.93 49.6602C112.031 50.0586 111.066 50.25 110.035 50.2344ZM111.09 39.8164C110.48 39.8008 109.938 39.9922 109.461 40.3906C108.992 40.7891 108.57 41.4805 108.195 42.4648H112.742L112.812 42.1602C112.859 41.8477 112.863 41.5508 112.824 41.2695C112.746 40.8164 112.555 40.4648 112.25 40.2148C111.945 39.957 111.559 39.8242 111.09 39.8164ZM124.062 46.4258C124.188 45.8008 123.754 45.3477 122.762 45.0664L121.695 44.7969C119.172 44.1016 117.945 42.875 118.016 41.1172C118.055 39.9219 118.582 38.9492 119.598 38.1992C120.621 37.4414 121.852 37.0703 123.289 37.0859C124.719 37.1016 125.875 37.4805 126.758 38.2227C127.641 38.9648 128.09 39.9531 128.105 41.1875L124.824 41.1758C124.84 40.0898 124.301 39.5391 123.207 39.5234C122.691 39.5234 122.242 39.6523 121.859 39.9102C121.484 40.168 121.254 40.5156 121.168 40.9531C121.051 41.5781 121.523 42.0195 122.586 42.2773L123.055 42.3828C124.133 42.6406 124.957 42.9375 125.527 43.2734C126.098 43.6016 126.535 44.0117 126.84 44.5039C127.152 44.9961 127.297 45.5859 127.273 46.2734C127.25 47.0781 126.988 47.7812 126.488 48.3828C125.996 48.9844 125.316 49.4492 124.449 49.7773C123.59 50.1055 122.684 50.2578 121.73 50.2344C120.324 50.2188 119.152 49.8164 118.215 49.0273C117.277 48.2305 116.801 47.2031 116.785 45.9453L119.902 45.9688C119.934 47.1797 120.582 47.793 121.848 47.8086C122.457 47.8086 122.957 47.6836 123.348 47.4336C123.746 47.1836 123.984 46.8477 124.062 46.4258ZM140.984 43.6953C140.82 45.0234 140.473 46.2031 139.941 47.2344C139.41 48.2656 138.75 49.0312 137.961 49.5312C137.172 50.0312 136.297 50.2695 135.336 50.2461C134.109 50.2148 133.141 49.7578 132.43 48.875L131.27 54.875H127.965L131 37.3203L134.047 37.3086L133.824 38.5859C134.738 37.5547 135.816 37.0547 137.059 37.0859C138.301 37.1172 139.266 37.5703 139.953 38.4453C140.641 39.3125 141.008 40.4922 141.055 41.9844C141.07 42.4688 141.047 43.0391 140.984 43.6953ZM137.703 43.4492L137.773 42.3242C137.789 41.5664 137.648 40.9648 137.352 40.5195C137.062 40.0742 136.637 39.8438 136.074 39.8281C135.113 39.7969 134.32 40.2031 133.695 41.0469L132.746 46.2734C133.035 47.0625 133.656 47.4727 134.609 47.5039C135.406 47.5273 136.07 47.2188 136.602 46.5781C137.133 45.9375 137.5 44.8945 137.703 43.4492ZM149.281 37.0859C150.398 37.1016 151.359 37.3906 152.164 37.9531C152.977 38.5078 153.57 39.2773 153.945 40.2617C154.328 41.2383 154.465 42.3242 154.355 43.5195C154.176 45.5352 153.473 47.168 152.246 48.418C151.027 49.6602 149.52 50.2656 147.723 50.2344C146.621 50.2188 145.668 49.9375 144.863 49.3906C144.059 48.8359 143.465 48.0703 143.082 47.0938C142.699 46.1172 142.562 45.0391 142.672 43.8594C142.875 41.7656 143.586 40.1016 144.805 38.8672C146.023 37.6328 147.516 37.0391 149.281 37.0859ZM145.941 45.0664C145.957 45.8164 146.133 46.4102 146.469 46.8477C146.805 47.2773 147.277 47.5 147.887 47.5156C148.902 47.5469 149.699 47.082 150.277 46.1211C150.855 45.1523 151.125 43.8828 151.086 42.3125C151.055 41.5625 150.871 40.9648 150.535 40.5195C150.207 40.0664 149.734 39.832 149.117 39.8164C148.133 39.7852 147.344 40.25 146.75 41.2109C146.164 42.1641 145.895 43.4492 145.941 45.0664ZM160.543 37.3086L160.262 38.8086C161.277 37.6289 162.508 37.0547 163.953 37.0859C165.148 37.1094 166.031 37.5469 166.602 38.3984C167.172 39.25 167.379 40.4297 167.223 41.9375L165.887 50H162.582L163.941 41.9023C163.98 41.5977 163.988 41.3203 163.965 41.0703C163.863 40.2734 163.363 39.8633 162.465 39.8398C161.598 39.8086 160.82 40.2109 160.133 41.0469L158.551 50H155.246L157.449 37.3203L160.543 37.3086ZM175.836 46.4258C175.961 45.8008 175.527 45.3477 174.535 45.0664L173.469 44.7969C170.945 44.1016 169.719 42.875 169.789 41.1172C169.828 39.9219 170.355 38.9492 171.371 38.1992C172.395 37.4414 173.625 37.0703 175.062 37.0859C176.492 37.1016 177.648 37.4805 178.531 38.2227C179.414 38.9648 179.863 39.9531 179.879 41.1875L176.598 41.1758C176.613 40.0898 176.074 39.5391 174.98 39.5234C174.465 39.5234 174.016 39.6523 173.633 39.9102C173.258 40.168 173.027 40.5156 172.941 40.9531C172.824 41.5781 173.297 42.0195 174.359 42.2773L174.828 42.3828C175.906 42.6406 176.73 42.9375 177.301 43.2734C177.871 43.6016 178.309 44.0117 178.613 44.5039C178.926 44.9961 179.07 45.5859 179.047 46.2734C179.023 47.0781 178.762 47.7812 178.262 48.3828C177.77 48.9844 177.09 49.4492 176.223 49.7773C175.363 50.1055 174.457 50.2578 173.504 50.2344C172.098 50.2188 170.926 49.8164 169.988 49.0273C169.051 48.2305 168.574 47.2031 168.559 45.9453L171.676 45.9688C171.707 47.1797 172.355 47.793 173.621 47.8086C174.23 47.8086 174.73 47.6836 175.121 47.4336C175.52 47.1836 175.758 46.8477 175.836 46.4258ZM184.074 50H180.746L182.949 37.3203H186.277L184.074 50ZM183.336 34.0977C183.32 33.5742 183.492 33.1406 183.852 32.7969C184.211 32.4531 184.645 32.2812 185.152 32.2812C185.652 32.2656 186.086 32.418 186.453 32.7383C186.82 33.0586 187.012 33.4727 187.027 33.9805C187.043 34.4648 186.879 34.8867 186.535 35.2461C186.199 35.6055 185.758 35.793 185.211 35.8086C184.719 35.8242 184.285 35.6758 183.91 35.3633C183.543 35.0508 183.352 34.6289 183.336 34.0977ZM192.219 45.8164L195.828 37.3203H199.391L193.262 50H190.098L187.93 37.3203H191.281L192.219 45.8164ZM205.836 37.0859C206.953 37.1016 207.914 37.3906 208.719 37.9531C209.531 38.5078 210.125 39.2773 210.5 40.2617C210.883 41.2383 211.02 42.3242 210.91 43.5195C210.73 45.5352 210.027 47.168 208.801 48.418C207.582 49.6602 206.074 50.2656 204.277 50.2344C203.176 50.2188 202.223 49.9375 201.418 49.3906C200.613 48.8359 200.02 48.0703 199.637 47.0938C199.254 46.1172 199.117 45.0391 199.227 43.8594C199.43 41.7656 200.141 40.1016 201.359 38.8672C202.578 37.6328 204.07 37.0391 205.836 37.0859ZM202.496 45.0664C202.512 45.8164 202.688 46.4102 203.023 46.8477C203.359 47.2773 203.832 47.5 204.441 47.5156C205.457 47.5469 206.254 47.082 206.832 46.1211C207.41 45.1523 207.68 43.8828 207.641 42.3125C207.609 41.5625 207.426 40.9648 207.09 40.5195C206.762 40.0664 206.289 39.832 205.672 39.8164C204.688 39.7852 203.898 40.25 203.305 41.2109C202.719 42.1641 202.449 43.4492 202.496 45.0664Z" fill="white"/>
<g clip-path="url(#clip0)">
<path d="M71.1346 62.9241H3.83698V61.5909H70.2534L82.9842 31.6883H75.9729V30.3551H85L71.1346 62.9241Z" fill="#6C63FF"/>
<path d="M0 56.8673H66.8577L81.671 22.0759H0V56.8673Z" fill="#50FA7B"/>
<path d="M4.89954 22.0759H0V56.8993H4.89954V22.0759Z" fill="#6C63FF"/>
<path d="M16.4811 48.4174L20.3274 30.0552H25.2749C26.6521 30.0552 27.5334 30.0765 27.9174 30.1178C28.676 30.1925 29.3546 30.3471 29.9518 30.5818C30.5491 30.8164 31.0917 31.1431 31.581 31.5644C32.069 31.9857 32.4916 32.4936 32.8449 33.0869C33.2009 33.6802 33.4742 34.3628 33.6662 35.1347C33.8581 35.908 33.9541 36.7519 33.9541 37.6705C33.9541 39.6489 33.5768 41.4048 32.8196 42.938C32.065 44.4698 31.1144 45.687 29.9705 46.5883C29.0933 47.2896 27.9614 47.8082 26.5748 48.1415C25.7896 48.3255 24.5843 48.4174 22.9552 48.4174H16.4811ZM20.878 45.4604H22.7952C24.1817 45.4604 25.1856 45.3764 25.8082 45.2044C26.4295 45.0338 27.0001 44.7138 27.5174 44.2458C28.2613 43.5699 28.8866 42.6673 29.3959 41.5408C29.9052 40.4129 30.1598 39.085 30.1598 37.5571C30.1598 36.2546 29.9492 35.276 29.5265 34.6201C29.1039 33.9641 28.5853 33.5282 27.9667 33.3109C27.5334 33.1602 26.7601 33.0856 25.6496 33.0856H23.4578L20.878 45.4604Z" fill="#1E2124"/>
<path d="M47.8702 42.8806H38.8523C38.843 43.0233 38.839 43.1313 38.839 43.2073C38.839 44.0925 39.091 44.8058 39.5963 45.3484C40.1016 45.891 40.7175 46.1617 41.4441 46.1617C42.6387 46.1617 43.5692 45.5431 44.2385 44.3085L47.4569 44.8471C46.8303 46.1417 45.993 47.1122 44.9451 47.7602C43.8972 48.4081 42.7213 48.7321 41.4188 48.7321C39.6309 48.7321 38.1777 48.1655 37.0592 47.0349C35.9393 45.903 35.3807 44.4072 35.3807 42.5447C35.3807 40.7248 35.886 39.1037 36.8965 37.6838C38.2737 35.764 40.2415 34.8027 42.796 34.8027C44.4252 34.8027 45.7184 35.3054 46.6796 36.3119C47.6395 37.3172 48.1195 38.7277 48.1195 40.5382C48.1221 41.4074 48.0381 42.1887 47.8702 42.8806ZM44.8398 40.6888C44.8491 40.5302 44.8531 40.4102 44.8531 40.3262C44.8531 39.341 44.6318 38.6024 44.1892 38.1091C43.7466 37.6158 43.1546 37.3692 42.4107 37.3692C41.6667 37.3692 41.0015 37.6491 40.4122 38.2091C39.8243 38.7677 39.4256 39.5956 39.2176 40.6888H44.8398Z" fill="#1E2124"/>
<path d="M55.8374 48.4174H52.7443L50.0766 35.1147H53.6083L54.5468 40.9141C54.8055 42.4833 54.9615 43.5272 55.0108 44.0458C55.0788 43.9045 55.3694 43.3632 55.8814 42.4233C56.3933 41.4834 56.7106 40.9181 56.8266 40.7262L60.133 35.1147H64.0166L55.8374 48.4174Z" fill="#1E2124"/>
<g opacity="0.35">
<path opacity="0.35" d="M18.5809 22.1159L22.2393 25.7742H64.1926L68.1576 29.7405H78.5246L81.671 22.0759L18.5809 22.1159Z" fill="#1E2124"/>
</g>
</g>
<defs>
<clipPath id="clip0">
<rect width="85" height="85" fill="white"/>
</clipPath>
</defs>
</svg>
