<svg width="569" height="547" viewBox="0 0 569 547" fill="none" xmlns="http://www.w3.org/2000/svg">
<g clip-path="url(#clip0)">
<g opacity="0.5">
<path opacity="0.5" d="M73.4073 156.39C73.407 150.047 71.766 143.813 68.6443 138.293C65.5225 132.773 61.0263 128.156 55.5932 124.892C50.1601 121.628 43.9752 119.827 37.6406 119.665C31.3059 119.503 25.0373 120.986 19.4449 123.968C13.8524 126.951 9.12663 131.332 5.72751 136.685C2.32839 142.038 0.371723 148.181 0.0479494 154.515C-0.275824 160.85 1.04432 167.161 3.87991 172.833C6.71549 178.505 10.9699 183.346 16.2291 186.885V187.05C17.4272 188.199 18.8409 189.099 20.3885 189.698L20.4387 189.533C22.1527 191.012 29.3959 193.374 37.7077 193.352H37.887C43.1508 193.352 48.8665 192.426 53.8937 189.698C53.8937 189.698 53.9368 189.605 54.0085 189.419C55.2829 188.821 56.4526 188.021 57.4723 187.05L57.5297 186.633C62.428 183.259 66.4329 178.743 69.1991 173.474C71.9652 168.205 73.4094 162.342 73.4073 156.39V156.39Z" fill="url(#paint0_linear)"/>
</g>
<path d="M36.3236 190.718C55.9845 190.718 71.9228 174.764 71.9228 155.084C71.9228 135.404 55.9845 119.45 36.3236 119.45C16.6626 119.45 0.724304 135.404 0.724304 155.084C0.724304 174.764 16.6626 190.718 36.3236 190.718Z" fill="#F5F5F5"/>
<path d="M22.0667 169.125C22.0667 169.125 13.5828 169.843 15.8275 185.291C16.9926 186.407 18.3674 187.28 19.8722 187.861L24.6412 171.695L22.0667 169.125Z" fill="#FDA57D"/>
<path d="M49.5908 169.125C49.5908 169.125 58.0747 169.843 55.83 185.291C54.667 186.406 53.2947 187.28 51.7925 187.861L47.0234 171.695L49.5908 169.125Z" fill="#FDA57D"/>
<path d="M22.4324 143.771C22.4324 143.771 18.3949 155.529 16.1932 154.423C16.1932 154.423 37.4423 172.793 56.1958 154.423C53.9389 150.562 51.2279 146.986 48.1207 143.771H22.4324Z" fill="#333333"/>
<path d="M36.051 158.472C44.7686 158.472 51.8355 151.398 51.8355 142.672C51.8355 133.946 44.7686 126.872 36.051 126.872C27.3335 126.872 20.2666 133.946 20.2666 142.672C20.2666 151.398 27.3335 158.472 36.051 158.472Z" fill="#333333"/>
<path opacity="0.1" d="M49.4259 169.125H21.9017L19.3343 180.144C19.3343 180.144 17.8283 185.248 19.7001 187.495C21.5718 189.742 39.1133 194.845 51.9718 187.861C53.0952 184.923 53.2237 181.697 52.3375 178.68C50.9032 173.54 51.9718 178.313 51.9718 178.313L49.4259 169.125Z" fill="black"/>
<path opacity="0.1" d="M49.7917 169.125H22.2675L19.7001 180.144C19.7001 180.144 18.1941 185.248 20.0658 187.495C21.9376 189.742 39.4791 194.845 52.3375 187.861C53.461 184.923 53.5895 181.697 52.7033 178.68C51.269 173.54 52.3375 178.313 52.3375 178.313L49.7917 169.125Z" fill="black"/>
<path d="M49.5908 169.125H22.0667L19.4993 180.144C19.4993 180.144 17.9933 185.248 19.865 187.495C21.7368 189.742 39.2782 194.845 52.1367 187.861C53.2601 184.923 53.3887 181.697 52.5025 178.68C51.0682 173.54 52.1367 178.313 52.1367 178.313L49.5908 169.125Z" fill="#FDD835"/>
<path opacity="0.1" d="M30.5003 159.98H41.5157V169.477C41.5157 170.758 41.0072 171.987 40.1021 172.893C39.197 173.799 37.9693 174.308 36.6893 174.308H35.3267C34.0467 174.308 32.8191 173.799 31.9139 172.893C31.0088 171.987 30.5003 170.758 30.5003 169.477V159.98Z" fill="black"/>
<path d="M30.5003 159.57H41.5157V169.067C41.5157 170.349 41.0072 171.578 40.1021 172.484C39.197 173.39 37.9693 173.899 36.6893 173.899H35.3267C34.0467 173.899 32.8191 173.39 31.9139 172.484C31.0088 171.578 30.5003 170.349 30.5003 169.067V159.57Z" fill="#FDA57D"/>
<path opacity="0.1" d="M30.5219 161.157C34.0734 162.473 37.9785 162.473 41.5301 161.157V159.8H30.5219V161.157Z" fill="black"/>
<path d="M36.051 161.896C44.7686 161.896 51.8355 154.822 51.8355 146.096C51.8355 137.37 44.7686 130.297 36.051 130.297C27.3335 130.297 20.2666 137.37 20.2666 146.096C20.2666 154.822 27.3335 161.896 36.051 161.896Z" fill="#FDA57D"/>
<path d="M20.9623 140.102H51.0825C51.0825 140.102 48.4864 127.935 37.0838 128.71C25.6811 129.485 20.9623 140.102 20.9623 140.102Z" fill="#333333"/>
<path d="M20.5965 148.185C21.4084 148.185 22.0667 146.951 22.0667 145.429C22.0667 143.906 21.4084 142.672 20.5965 142.672C19.7846 142.672 19.1263 143.906 19.1263 145.429C19.1263 146.951 19.7846 148.185 20.5965 148.185Z" fill="#FDA57D"/>
<path d="M51.4267 148.185C52.2386 148.185 52.8968 146.951 52.8968 145.429C52.8968 143.906 52.2386 142.672 51.4267 142.672C50.6147 142.672 49.9565 143.906 49.9565 145.429C49.9565 146.951 50.6147 148.185 51.4267 148.185Z" fill="#FDA57D"/>
<path opacity="0.1" d="M20.9623 140.504H51.0825C51.0825 140.504 48.4864 128.344 37.0838 129.119C25.6811 129.895 20.9623 140.504 20.9623 140.504Z" fill="black"/>
<g opacity="0.5">
<path opacity="0.5" d="M0.509158 36.7394C0.509537 30.3966 2.15047 24.1618 5.27223 18.6421C8.39399 13.1223 12.8902 8.50556 18.3233 5.2412C23.7564 1.97685 29.9413 0.176078 36.2759 0.0141708C42.6106 -0.147737 48.8792 1.33473 54.4716 4.31729C60.0641 7.29984 64.7899 11.6809 68.189 17.034C71.5881 22.3871 73.5448 28.5298 73.8685 34.8644C74.1923 41.199 72.8722 47.5096 70.0366 53.182C67.201 58.8544 62.9466 63.6953 57.6874 67.2336V67.3987C56.4893 68.548 55.0756 69.4482 53.5279 70.0476L53.4777 69.8825C51.7638 71.3613 44.5206 73.723 36.2088 73.7014H36.0295C30.7657 73.7014 25.05 72.7754 20.0228 70.0476C20.0228 70.0476 19.9797 69.9543 19.908 69.7676C18.6336 69.1698 17.4639 68.3698 16.4442 67.3987L16.3868 66.9824C11.4885 63.6082 7.48355 59.092 4.71744 53.8233C1.95133 48.5546 0.507055 42.6914 0.509158 36.7394V36.7394Z" fill="url(#paint1_linear)"/>
</g>
<path d="M37.2343 72.3734C56.8952 72.3734 72.8336 56.4195 72.8336 36.7394C72.8336 17.0593 56.8952 1.10547 37.2343 1.10547C17.5734 1.10547 1.63507 17.0593 1.63507 36.7394C1.63507 56.4195 17.5734 72.3734 37.2343 72.3734Z" fill="#F5F5F5"/>
<path d="M23.2714 50.314C23.2714 50.314 14.7876 51.0318 17.0322 66.4799C18.1953 67.5951 19.5676 68.4685 21.0698 69.0498L25.8388 52.8839L23.2714 50.314Z" fill="#BE7C5E"/>
<path d="M50.8028 50.314C50.8028 50.314 59.2867 51.0318 57.042 66.4799C55.8789 67.5951 54.5067 68.4685 53.0045 69.0498L48.2354 52.8839L50.8028 50.314Z" fill="#BE7C5E"/>
<path d="M23.6443 24.9667C23.6443 24.9667 22.9917 26.869 22.0666 29.0728C20.0443 33.8896 22.3535 52.3813 27.1799 54.3482C32.6015 56.5592 39.73 57.9734 47.1381 55.2743C53.5925 52.9269 55.5575 31.8796 51.0108 26.747C50.4801 26.144 49.9207 25.5482 49.3398 24.9667H23.6443Z" fill="#333333"/>
<path d="M37.263 39.6611C45.9805 39.6611 53.0475 32.5873 53.0475 23.8613C53.0475 15.1353 45.9805 8.06146 37.263 8.06146C28.5455 8.06146 21.4786 15.1353 21.4786 23.8613C21.4786 32.5873 28.5455 39.6611 37.263 39.6611Z" fill="#333333"/>
<path opacity="0.1" d="M50.6378 50.314H23.1137L20.5463 61.3329C20.5463 61.3329 19.0403 66.4368 20.912 68.6837C22.7838 70.9305 40.3253 76.0345 53.1837 69.0498C54.3166 66.1153 54.4552 62.8895 53.5782 59.8685C52.1439 54.7287 53.2124 59.5024 53.2124 59.5024L50.6378 50.314Z" fill="black"/>
<path opacity="0.1" d="M51.0036 50.314H23.4579L20.8905 61.3329C20.8905 61.3329 19.3845 66.4368 21.2563 68.6837C23.128 70.9305 40.6695 76.0345 53.528 69.0498C54.6514 66.1121 54.7799 62.8864 53.8937 59.8685C52.4594 54.7287 53.528 59.5024 53.528 59.5024L51.0036 50.314Z" fill="black"/>
<path d="M50.8028 50.314H23.2715L20.7041 61.3329C20.7041 61.3329 19.1981 66.4368 21.0698 68.6837C22.9416 70.9305 40.483 76.0345 53.3415 69.0498C54.4649 66.1121 54.5934 62.8864 53.7072 59.8685C52.2729 54.7287 53.3415 59.5024 53.3415 59.5024L50.8028 50.314Z" fill="#3AD29F"/>
<path opacity="0.1" d="M31.7123 41.1686H42.7277V50.6729C42.7277 51.3073 42.6029 51.9355 42.3604 52.5217C42.1178 53.1078 41.7623 53.6404 41.3141 54.089C40.8659 54.5376 40.3339 54.8935 39.7483 55.1363C39.1628 55.379 38.5351 55.504 37.9013 55.504H36.5388C35.9049 55.504 35.2773 55.379 34.6918 55.1363C34.1062 54.8935 33.5741 54.5376 33.126 54.089C32.6778 53.6404 32.3223 53.1078 32.0797 52.5217C31.8372 51.9355 31.7123 51.3073 31.7123 50.6729V41.1686Z" fill="black"/>
<path d="M31.7123 40.7594H42.7277V50.2493C42.7277 50.8838 42.6029 51.512 42.3604 52.0981C42.1178 52.6843 41.7623 53.2168 41.3141 53.6655C40.8659 54.1141 40.3339 54.4699 39.7483 54.7127C39.1628 54.9555 38.5351 55.0805 37.9013 55.0805H36.5388C35.2587 55.0805 34.0311 54.5715 33.126 53.6655C32.2208 52.7594 31.7123 51.5306 31.7123 50.2493V40.7594Z" fill="#BE7C5E"/>
<path opacity="0.1" d="M31.7338 42.353C35.2854 43.6696 39.1905 43.6696 42.7421 42.353V40.9963H31.7338V42.353Z" fill="black"/>
<path d="M37.263 43.0924C45.9805 43.0924 53.0475 36.0186 53.0475 27.2926C53.0475 18.5666 45.9805 11.4927 37.263 11.4927C28.5455 11.4927 21.4786 18.5666 21.4786 27.2926C21.4786 36.0186 28.5455 43.0924 37.263 43.0924Z" fill="#BE7C5E"/>
<path d="M22.1743 21.2914H52.2945C52.2945 21.2914 49.7271 9.12385 38.346 9.89912C26.9648 10.6744 22.1743 21.2914 22.1743 21.2914Z" fill="#333333"/>
<path d="M21.8013 29.3743C22.6133 29.3743 23.2715 28.1402 23.2715 26.6178C23.2715 25.0954 22.6133 23.8613 21.8013 23.8613C20.9894 23.8613 20.3312 25.0954 20.3312 26.6178C20.3312 28.1402 20.9894 29.3743 21.8013 29.3743Z" fill="#BE7C5E"/>
<path d="M52.6315 29.3743C53.4435 29.3743 54.1017 28.1402 54.1017 26.6178C54.1017 25.0954 53.4435 23.8613 52.6315 23.8613C51.8196 23.8613 51.1614 25.0954 51.1614 26.6178C51.1614 28.1402 51.8196 29.3743 52.6315 29.3743Z" fill="#BE7C5E"/>
<path opacity="0.1" d="M22.1743 21.7005H52.2945C52.2945 21.7005 49.7271 9.53303 38.346 10.3083C26.9648 11.0836 22.1743 21.7005 22.1743 21.7005Z" fill="black"/>
<g opacity="0.5">
<path opacity="0.5" d="M73.4073 510.038C73.4057 503.695 71.7637 497.461 68.6412 491.942C65.5186 486.423 61.0219 481.807 55.5886 478.544C50.1552 475.281 43.9704 473.481 37.6361 473.32C31.3017 473.159 25.0336 474.642 19.4417 477.625C13.8498 480.608 9.12464 484.989 5.72608 490.342C2.32751 495.695 0.371307 501.838 0.0478576 508.172C-0.275592 514.506 1.04473 520.816 3.88032 526.489C6.71591 532.161 10.9702 537.001 16.2291 540.539V540.704C17.4272 541.854 18.8409 542.754 20.3885 543.353L20.4387 543.188C22.1527 544.667 29.3959 547.029 37.7077 547.007H37.887C43.1508 547.007 48.8665 546.081 53.8937 543.353C53.8937 543.353 53.9368 543.26 54.0085 543.073C55.2829 542.475 56.4526 541.676 57.4723 540.704L57.5297 540.288C62.429 536.913 66.4346 532.396 69.2007 527.126C71.9669 521.856 73.4106 515.991 73.4073 510.038V510.038Z" fill="url(#paint2_linear)"/>
</g>
<path d="M36.7037 545.679C56.3646 545.679 72.3029 529.725 72.3029 510.045C72.3029 490.365 56.3646 474.411 36.7037 474.411C17.0428 474.411 1.10443 490.365 1.10443 510.045C1.10443 529.725 17.0428 545.679 36.7037 545.679Z" fill="#F5F5F5"/>
<path d="M21.3065 523.979C21.3065 523.979 12.8226 524.696 15.0673 540.145C16.2303 541.26 17.6026 542.133 19.1048 542.714L23.8739 526.549L21.3065 523.979Z" fill="#4D8AF0"/>
<path d="M48.8306 523.979C48.8306 523.979 57.3145 524.696 55.0698 540.145C53.9068 541.26 52.5345 542.133 51.0323 542.714L46.2632 526.549L48.8306 523.979Z" fill="#4D8AF0"/>
<path d="M35.2909 513.326C44.0084 513.326 51.0753 506.252 51.0753 497.526C51.0753 488.8 44.0084 481.726 35.2909 481.726C26.5734 481.726 19.5065 488.8 19.5065 497.526C19.5065 506.252 26.5734 513.326 35.2909 513.326Z" fill="#333333"/>
<path d="M48.6657 523.979H21.1415L18.5741 534.998C18.5741 534.998 17.0681 540.102 18.9399 542.348C20.8116 544.595 38.3531 549.699 51.2116 542.714C52.335 539.777 52.4635 536.551 51.5773 533.533C50.143 528.393 51.2116 533.167 51.2116 533.167L48.6657 523.979Z" fill="#4D8AF0"/>
<path d="M49.0386 523.979H21.5073L18.9399 534.998C18.9399 534.998 17.4339 540.102 19.3057 542.348C21.1774 544.595 38.7189 549.699 51.5773 542.714C52.7008 539.777 52.8293 536.551 51.9431 533.533C50.5088 528.393 51.5773 533.167 51.5773 533.167L49.0386 523.979Z" fill="#4D8AF0"/>
<path d="M48.8307 523.979H21.3065L18.7391 534.998C18.7391 534.998 17.2331 540.102 19.1048 542.348C20.9766 544.595 38.5181 549.692 51.4267 542.693C52.5502 539.755 52.6787 536.53 51.7925 533.512C50.3582 528.372 51.4267 533.146 51.4267 533.146L48.8307 523.979Z" fill="#4D8AF0"/>
<path opacity="0.1" d="M29.7473 514.833H40.7556V524.33C40.7556 524.965 40.6307 525.593 40.3882 526.179C40.1456 526.765 39.7901 527.298 39.342 527.746C38.8938 528.195 38.3617 528.551 37.7762 528.794C37.1906 529.037 36.563 529.161 35.9292 529.161H34.5666C33.9328 529.161 33.3052 529.037 32.7196 528.794C32.134 528.551 31.602 528.195 31.1538 527.746C30.7056 527.298 30.3501 526.765 30.1076 526.179C29.865 525.593 29.7402 524.965 29.7402 524.33V514.833H29.7473Z" fill="black"/>
<path d="M29.7473 514.424H40.7556V523.921C40.7556 524.556 40.6307 525.184 40.3882 525.77C40.1456 526.356 39.7901 526.889 39.342 527.337C38.8938 527.786 38.3617 528.142 37.7762 528.385C37.1906 528.627 36.563 528.752 35.9292 528.752H34.5666C33.9328 528.752 33.3052 528.627 32.7196 528.385C32.134 528.142 31.602 527.786 31.1538 527.337C30.7056 526.889 30.3501 526.356 30.1076 525.77C29.865 525.184 29.7402 524.556 29.7402 523.921V514.424H29.7473Z" fill="#FDA57D"/>
<path opacity="0.1" d="M29.7689 516.01C33.3204 517.327 37.2255 517.327 40.7771 516.01V514.697H29.7689V516.01Z" fill="black"/>
<path d="M35.2909 516.75C44.0084 516.75 51.0753 509.676 51.0753 500.95C51.0753 492.224 44.0084 485.15 35.2909 485.15C26.5734 485.15 19.5065 492.224 19.5065 500.95C19.5065 509.676 26.5734 516.75 35.2909 516.75Z" fill="#FDA57D"/>
<path opacity="0.1" d="M20.2021 495.358H50.3223C50.3223 495.358 47.7334 483.198 36.3666 483.973C24.9998 484.748 20.2021 495.358 20.2021 495.358Z" fill="black"/>
<path d="M20.2021 494.949H50.3223C50.3223 494.949 47.7549 482.781 36.3738 483.557C24.9926 484.332 20.2021 494.949 20.2021 494.949Z" fill="#333333"/>
<path d="M19.8364 503.039C20.6483 503.039 21.3065 501.805 21.3065 500.282C21.3065 498.76 20.6483 497.526 19.8364 497.526C19.0244 497.526 18.3662 498.76 18.3662 500.282C18.3662 501.805 19.0244 503.039 19.8364 503.039Z" fill="#FDA57D"/>
<path d="M50.6666 503.039C51.4785 503.039 52.1367 501.805 52.1367 500.282C52.1367 498.76 51.4785 497.526 50.6666 497.526C49.8546 497.526 49.1964 498.76 49.1964 500.282C49.1964 501.805 49.8546 503.039 50.6666 503.039Z" fill="#FDA57D"/>
<g opacity="0.5">
<path opacity="0.5" d="M73.4073 393.381C73.407 387.038 71.766 380.803 68.6443 375.283C65.5225 369.763 61.0263 365.147 55.5932 361.882C50.1601 358.618 43.9752 356.817 37.6406 356.655C31.3059 356.493 25.0373 357.976 19.4449 360.958C13.8524 363.941 9.12663 368.322 5.72751 373.675C2.32839 379.028 0.371723 385.171 0.0479494 391.506C-0.275824 397.84 1.04432 404.151 3.87991 409.823C6.71549 415.496 10.9699 420.336 16.2291 423.875V424.04C17.4272 425.189 18.8409 426.089 20.3885 426.689L20.4387 426.524C22.1527 428.002 29.3959 430.364 37.7077 430.343H37.887C43.1508 430.343 48.8665 429.417 53.8937 426.689C53.8937 426.689 53.9368 426.595 54.0085 426.409C55.2829 425.811 56.4526 425.011 57.4723 424.04L57.5297 423.623C62.428 420.249 66.4329 415.733 69.1991 410.464C71.9652 405.196 73.4094 399.333 73.4073 393.381V393.381Z" fill="url(#paint3_linear)"/>
</g>
<path d="M36.3236 427.687C55.9845 427.687 71.9228 411.733 71.9228 392.053C71.9228 372.372 55.9845 356.419 36.3236 356.419C16.6626 356.419 0.724304 372.372 0.724304 392.053C0.724304 411.733 16.6626 427.687 36.3236 427.687Z" fill="#F5F5F5"/>
<path d="M22.0667 406.094C22.0667 406.094 13.5828 406.811 15.8275 422.26C16.9905 423.375 18.3628 424.248 19.865 424.829L24.634 408.663L22.0667 406.094Z" fill="#BE7C5E"/>
<path d="M49.5908 406.094C49.5908 406.094 58.0747 406.811 55.83 422.26C54.667 423.375 53.2947 424.248 51.7925 424.829L47.0234 408.663L49.5908 406.094Z" fill="#BE7C5E"/>
<path d="M22.4324 380.746C22.4324 380.746 18.3949 401.564 16.1932 400.43C16.1932 400.43 37.4423 418.8 56.1958 400.43C56.1958 400.43 52.8897 385.527 48.1207 380.746H22.4324Z" fill="#333333"/>
<path d="M36.051 395.441C44.7686 395.441 51.8355 388.367 51.8355 379.641C51.8355 370.915 44.7686 363.841 36.051 363.841C27.3335 363.841 20.2666 370.915 20.2666 379.641C20.2666 388.367 27.3335 395.441 36.051 395.441Z" fill="#333333"/>
<path opacity="0.1" d="M49.4259 406.094H21.9017L19.3343 417.113C19.3343 417.113 17.8283 422.217 19.7001 424.463C21.5718 426.71 39.1133 431.814 51.9718 424.829C53.0952 421.892 53.2237 418.666 52.3375 415.648C50.9032 410.508 51.9718 415.282 51.9718 415.282L49.4259 406.094Z" fill="black"/>
<path opacity="0.1" d="M49.7917 406.094H22.2675L19.7001 417.113C19.7001 417.113 18.1941 422.217 20.0658 424.463C21.9376 426.71 39.4791 431.814 52.3375 424.829C53.461 421.892 53.5895 418.666 52.7033 415.648C51.269 410.508 52.3375 415.282 52.3375 415.282L49.7917 406.094Z" fill="black"/>
<path d="M49.5908 406.094H22.0667L19.4993 417.113C19.4993 417.113 17.9933 422.217 19.865 424.463C21.7368 426.71 39.2782 431.814 52.1367 424.829C53.2601 421.892 53.3887 418.666 52.5025 415.648C51.0682 410.508 52.1367 415.282 52.1367 415.282L49.5908 406.094Z" fill="#F55F44"/>
<path opacity="0.1" d="M30.5003 396.97H41.5157V406.467C41.5157 407.101 41.3909 407.73 41.1483 408.316C40.9058 408.902 40.5503 409.434 40.1021 409.883C39.6539 410.332 39.1218 410.688 38.5363 410.93C37.9507 411.173 37.3231 411.298 36.6893 411.298H35.3267C34.6929 411.298 34.0653 411.173 33.4797 410.93C32.8942 410.688 32.3621 410.332 31.9139 409.883C31.4658 409.434 31.1102 408.902 30.8677 408.316C30.6251 407.73 30.5003 407.101 30.5003 406.467V396.97Z" fill="black"/>
<path d="M30.5003 396.546H41.5157V406.043C41.5157 407.325 41.0072 408.553 40.1021 409.459C39.197 410.365 37.9693 410.874 36.6893 410.874H35.3267C34.0467 410.874 32.8191 410.365 31.9139 409.459C31.0088 408.553 30.5003 407.325 30.5003 406.043V396.546Z" fill="#BE7C5E"/>
<path opacity="0.1" d="M30.5219 398.133C34.0734 399.449 37.9785 399.449 41.5301 398.133V396.776H30.5219V398.133Z" fill="black"/>
<path d="M36.051 398.872C44.7686 398.872 51.8355 391.798 51.8355 383.072C51.8355 374.346 44.7686 367.272 36.051 367.272C27.3335 367.272 20.2666 374.346 20.2666 383.072C20.2666 391.798 27.3335 398.872 36.051 398.872Z" fill="#BE7C5E"/>
<path d="M20.9623 377.071H51.0825C51.0825 377.071 48.4864 364.911 37.0838 365.686C25.6811 366.461 20.9623 377.071 20.9623 377.071Z" fill="#333333"/>
<path d="M20.5965 385.154C21.4084 385.154 22.0667 383.92 22.0667 382.398C22.0667 380.875 21.4084 379.641 20.5965 379.641C19.7846 379.641 19.1263 380.875 19.1263 382.398C19.1263 383.92 19.7846 385.154 20.5965 385.154Z" fill="#BE7C5E"/>
<path d="M51.4267 385.154C52.2386 385.154 52.8968 383.92 52.8968 382.398C52.8968 380.875 52.2386 379.641 51.4267 379.641C50.6147 379.641 49.9565 380.875 49.9565 382.398C49.9565 383.92 50.6147 385.154 51.4267 385.154Z" fill="#BE7C5E"/>
<path opacity="0.1" d="M20.9623 377.48H51.0825C51.0825 377.48 48.4864 365.313 37.0838 366.102C25.6811 366.892 20.9623 377.48 20.9623 377.48Z" fill="black"/>
<g opacity="0.5">
<path opacity="0.5" d="M73.4073 274.282C73.407 267.94 71.766 261.705 68.6443 256.185C65.5225 250.665 61.0263 246.049 55.5932 242.784C50.1601 239.52 43.9752 237.719 37.6406 237.557C31.3059 237.395 25.0373 238.878 19.4449 241.86C13.8524 244.843 9.12663 249.224 5.72751 254.577C2.32839 259.93 0.371723 266.073 0.0479494 272.407C-0.275824 278.742 1.04432 285.053 3.87991 290.725C6.71549 296.397 10.9699 301.238 16.2291 304.777V304.942C17.4272 306.091 18.8409 306.991 20.3885 307.591L20.4387 307.425C22.1527 308.904 29.3959 311.266 37.7077 311.244H37.887C43.1508 311.244 48.8665 310.318 53.8937 307.591C53.8937 307.591 53.9368 307.497 54.0085 307.311C55.2829 306.713 56.4526 305.913 57.4723 304.942L57.5297 304.525C62.428 301.151 66.4329 296.635 69.1991 291.366C71.9652 286.098 73.4094 280.234 73.4073 274.282V274.282Z" fill="url(#paint4_linear)"/>
</g>
<path d="M36.7037 309.916C56.3646 309.916 72.3029 293.962 72.3029 274.282C72.3029 254.602 56.3646 238.648 36.7037 238.648C17.0428 238.648 1.10443 254.602 1.10443 274.282C1.10443 293.962 17.0428 309.916 36.7037 309.916Z" fill="#F5F5F5"/>
<path d="M21.3065 288.216C21.3065 288.216 12.8226 288.934 15.0673 304.382C16.2303 305.497 17.6026 306.37 19.1048 306.952L23.8739 290.786L21.3065 288.216Z" fill="#4D8AF0"/>
<path d="M48.8306 288.216C48.8306 288.216 57.3145 288.934 55.0698 304.382C53.9068 305.497 52.5345 306.37 51.0323 306.952L46.2632 290.786L48.8306 288.216Z" fill="#4D8AF0"/>
<path d="M35.2909 277.57C44.0084 277.57 51.0753 270.496 51.0753 261.77C51.0753 253.044 44.0084 245.97 35.2909 245.97C26.5734 245.97 19.5065 253.044 19.5065 261.77C19.5065 270.496 26.5734 277.57 35.2909 277.57Z" fill="#333333"/>
<path d="M48.6657 288.216H21.1415L18.5741 299.235C18.5741 299.235 17.0681 304.339 18.9399 306.586C20.8116 308.832 38.3531 313.936 51.2116 306.952C52.335 304.014 52.4635 300.788 51.5773 297.77C50.143 292.631 51.2116 297.404 51.2116 297.404L48.6657 288.216Z" fill="#4D8AF0"/>
<path d="M49.0386 288.216H21.5073L18.9399 299.235C18.9399 299.235 17.4339 304.339 19.3057 306.586C21.1774 308.832 38.7189 313.936 51.5773 306.952C52.7008 304.014 52.8293 300.788 51.9431 297.77C50.5088 292.631 51.5773 297.404 51.5773 297.404L49.0386 288.216Z" fill="#4D8AF0"/>
<path d="M48.8307 288.216H21.3065L18.7391 299.235C18.7391 299.235 17.2331 304.339 19.1048 306.586C20.9766 308.832 38.5181 313.936 51.3765 306.952C52.5 304.014 52.6285 300.788 51.7423 297.77C50.308 292.631 51.3765 297.404 51.3765 297.404L48.8307 288.216Z" fill="#4D8AF0"/>
<path opacity="0.1" d="M29.7473 279.078H40.7555V288.575C40.7555 289.209 40.6307 289.837 40.3882 290.424C40.1456 291.01 39.7901 291.542 39.3419 291.991C38.8937 292.44 38.3617 292.795 37.7761 293.038C37.1906 293.281 36.5629 293.406 35.9291 293.406H34.5666C33.2878 293.404 32.062 292.894 31.1584 291.988C30.2548 291.083 29.7473 289.855 29.7473 288.575V279.078Z" fill="black"/>
<path d="M29.7473 278.669H40.7556V288.166C40.7556 288.8 40.6307 289.428 40.3882 290.014C40.1456 290.601 39.7901 291.133 39.342 291.582C38.8938 292.03 38.3617 292.386 37.7762 292.629C37.1906 292.872 36.563 292.997 35.9292 292.997H34.5666C33.9328 292.997 33.3052 292.872 32.7196 292.629C32.134 292.386 31.602 292.03 31.1538 291.582C30.7056 291.133 30.3501 290.601 30.1076 290.014C29.865 289.428 29.7402 288.8 29.7402 288.166V278.669H29.7473Z" fill="#BE7C5E"/>
<path opacity="0.1" d="M29.7689 280.255C33.3204 281.571 37.2255 281.571 40.7771 280.255V278.898H29.7689V280.255Z" fill="black"/>
<path d="M35.2909 280.994C44.0084 280.994 51.0753 273.92 51.0753 265.194C51.0753 256.468 44.0084 249.395 35.2909 249.395C26.5734 249.395 19.5065 256.468 19.5065 265.194C19.5065 273.92 26.5734 280.994 35.2909 280.994Z" fill="#BE7C5E"/>
<path opacity="0.1" d="M20.2021 259.603H50.3223C50.3223 259.603 47.7334 247.442 36.3666 248.217C24.9998 248.993 20.2021 259.603 20.2021 259.603Z" fill="black"/>
<path d="M20.2021 259.193H50.3223C50.3223 259.193 47.7549 247.026 36.3738 247.801C24.9926 248.576 20.2021 259.193 20.2021 259.193Z" fill="#333333"/>
<path d="M19.8364 267.276C20.6483 267.276 21.3065 266.042 21.3065 264.52C21.3065 262.997 20.6483 261.763 19.8364 261.763C19.0244 261.763 18.3662 262.997 18.3662 264.52C18.3662 266.042 19.0244 267.276 19.8364 267.276Z" fill="#BE7C5E"/>
<path d="M50.6666 267.276C51.4785 267.276 52.1367 266.042 52.1367 264.52C52.1367 262.997 51.4785 261.763 50.6666 261.763C49.8546 261.763 49.1964 262.997 49.1964 264.52C49.1964 266.042 49.8546 267.276 50.6666 267.276Z" fill="#BE7C5E"/>
<path d="M21.8802 251.426C22.3483 249.976 23.1575 248.658 24.2396 247.586C27.4811 244.377 32.7952 243.702 35.5204 240.048C35.6654 240.307 35.7553 240.594 35.7844 240.889C35.8136 241.185 35.7813 241.483 35.6897 241.766C35.5981 242.048 35.4491 242.309 35.2522 242.531C35.0552 242.753 34.8144 242.932 34.5451 243.056C37.1555 243.056 40.1818 242.812 41.6592 240.659C42.0238 241.509 42.1398 242.445 41.9938 243.359C41.8478 244.272 41.4458 245.126 40.8345 245.82C43.1508 245.928 45.6178 247.5 45.7684 249.811C45.7656 250.587 45.5669 251.35 45.1908 252.029C44.8147 252.708 44.2733 253.281 43.617 253.695C42.3023 254.511 40.8405 255.063 39.3141 255.317C34.9323 256.272 19.0044 260.356 21.8802 251.426Z" fill="#333333"/>
<g opacity="0.5">
<path opacity="0.5" d="M568.993 25.4764H147.309V48.225H568.993V25.4764Z" fill="url(#paint5_linear)"/>
</g>
<path d="M567.802 27.1849H149.074V45.9494H567.802V27.1849Z" fill="#F5F5F5"/>
<path d="M445.141 27.1849H149.074V45.9494H445.141V27.1849Z" fill="#3AD29F"/>
<g opacity="0.5">
<path opacity="0.5" d="M568.993 148.616H147.309V171.365H568.993V148.616Z" fill="url(#paint6_linear)"/>
</g>
<path d="M567.802 150.324H149.074V169.089H567.802V150.324Z" fill="#F5F5F5"/>
<path d="M559.562 150.324H149.074V169.089H559.562V150.324Z" fill="#6C63FF"/>
<g opacity="0.5">
<path opacity="0.5" d="M568.993 263.019H147.309V285.768H568.993V263.019Z" fill="url(#paint7_linear)"/>
</g>
<path d="M567.802 264.728H149.074V283.492H567.802V264.728Z" fill="#F5F5F5"/>
<path d="M213.28 264.728H149.074V283.492H213.28V264.728Z" fill="#F55F44"/>
<g opacity="0.5">
<path opacity="0.5" d="M568.993 381.996H147.309V404.744H568.993V381.996Z" fill="url(#paint8_linear)"/>
</g>
<path d="M567.802 383.704H149.074V402.468H567.802V383.704Z" fill="#F5F5F5"/>
<path d="M529.048 383.704H149.074V402.468H529.048V383.704Z" fill="#6C63FF"/>
<g opacity="0.5">
<path opacity="0.5" d="M568.993 498.775H147.309V521.524H568.993V498.775Z" fill="url(#paint9_linear)"/>
</g>
<path d="M567.802 500.483H149.074V519.248H567.802V500.483Z" fill="#F5F5F5"/>
<path d="M279.588 500.483H149.074V519.248H279.588V500.483Z" fill="#3AD29F"/>
</g>
<defs>
<linearGradient id="paint0_linear" x1="36.7037" y1="193.352" x2="36.7037" y2="119.651" gradientUnits="userSpaceOnUse">
<stop stop-color="#808080" stop-opacity="0.25"/>
<stop offset="0.54" stop-color="#808080" stop-opacity="0.12"/>
<stop offset="1" stop-color="#808080" stop-opacity="0.1"/>
</linearGradient>
<linearGradient id="paint1_linear" x1="14953.1" y1="12652" x2="14953.1" y2="5085.26" gradientUnits="userSpaceOnUse">
<stop stop-color="#808080" stop-opacity="0.25"/>
<stop offset="0.54" stop-color="#808080" stop-opacity="0.12"/>
<stop offset="1" stop-color="#808080" stop-opacity="0.1"/>
</linearGradient>
<linearGradient id="paint2_linear" x1="18680" y1="61717.5" x2="18680" y2="54150.8" gradientUnits="userSpaceOnUse">
<stop stop-color="#808080" stop-opacity="0.25"/>
<stop offset="0.54" stop-color="#808080" stop-opacity="0.12"/>
<stop offset="1" stop-color="#808080" stop-opacity="0.1"/>
</linearGradient>
<linearGradient id="paint3_linear" x1="18680" y1="49621.7" x2="18680" y2="42055.7" gradientUnits="userSpaceOnUse">
<stop stop-color="#808080" stop-opacity="0.25"/>
<stop offset="0.54" stop-color="#808080" stop-opacity="0.12"/>
<stop offset="1" stop-color="#808080" stop-opacity="0.1"/>
</linearGradient>
<linearGradient id="paint4_linear" x1="18680" y1="37277.4" x2="18680" y2="29710.6" gradientUnits="userSpaceOnUse">
<stop stop-color="#808080" stop-opacity="0.25"/>
<stop offset="0.54" stop-color="#808080" stop-opacity="0.12"/>
<stop offset="1" stop-color="#808080" stop-opacity="0.1"/>
</linearGradient>
<linearGradient id="paint5_linear" x1="210740" y1="1553.73" x2="210740" y2="832.824" gradientUnits="userSpaceOnUse">
<stop stop-color="#808080" stop-opacity="0.25"/>
<stop offset="0.54" stop-color="#808080" stop-opacity="0.12"/>
<stop offset="1" stop-color="#808080" stop-opacity="0.1"/>
</linearGradient>
<linearGradient id="paint6_linear" x1="210740" y1="5579.16" x2="210740" y2="4858.26" gradientUnits="userSpaceOnUse">
<stop stop-color="#808080" stop-opacity="0.25"/>
<stop offset="0.54" stop-color="#808080" stop-opacity="0.12"/>
<stop offset="1" stop-color="#808080" stop-opacity="0.1"/>
</linearGradient>
<linearGradient id="paint7_linear" x1="210740" y1="9319.01" x2="210740" y2="8598.1" gradientUnits="userSpaceOnUse">
<stop stop-color="#808080" stop-opacity="0.25"/>
<stop offset="0.54" stop-color="#808080" stop-opacity="0.12"/>
<stop offset="1" stop-color="#808080" stop-opacity="0.1"/>
</linearGradient>
<linearGradient id="paint8_linear" x1="210740" y1="13208.3" x2="210740" y2="12487.4" gradientUnits="userSpaceOnUse">
<stop stop-color="#808080" stop-opacity="0.25"/>
<stop offset="0.54" stop-color="#808080" stop-opacity="0.12"/>
<stop offset="1" stop-color="#808080" stop-opacity="0.1"/>
</linearGradient>
<linearGradient id="paint9_linear" x1="210740" y1="17025.8" x2="210740" y2="16304.9" gradientUnits="userSpaceOnUse">
<stop stop-color="#808080" stop-opacity="0.25"/>
<stop offset="0.54" stop-color="#808080" stop-opacity="0.12"/>
<stop offset="1" stop-color="#808080" stop-opacity="0.1"/>
</linearGradient>
<clipPath id="clip0">
<rect width="569" height="547" fill="white"/>
</clipPath>
</defs>
</svg>
