<svg width="635" height="345" viewBox="0 0 635 345" fill="none" xmlns="http://www.w3.org/2000/svg">
<g clip-path="url(#clip0)">
<path d="M319.537 345C491.723 345 631.307 335.767 631.307 324.378C631.307 312.989 491.723 303.756 319.537 303.756C147.352 303.756 7.76807 312.989 7.76807 324.378C7.76807 335.767 147.352 345 319.537 345Z" fill="#282B30"/>
<path d="M307.588 98.6226C256.793 98.6226 220.322 131.183 220.322 207.159C220.322 293.264 256.793 316.057 307.588 316.057C358.384 316.057 397.027 291.094 397.027 207.159C397.027 117.436 358.384 98.6226 307.588 98.6226ZM307.922 287.476C272.74 287.476 254.359 266.853 254.359 207.214C254.359 154.592 273.492 126.842 308.675 126.842C343.857 126.842 362.99 145.07 362.99 207.214C362.99 265.35 343.104 287.476 307.922 287.476Z" fill="#36393E"/>
<path d="M189.905 256H168.903V194.209C168.903 190.927 167.598 187.779 165.276 185.458C162.953 183.138 159.803 181.834 156.518 181.834H151.597C149.97 181.834 148.36 182.154 146.857 182.776C145.354 183.398 143.989 184.309 142.839 185.458C141.689 186.607 140.776 187.972 140.154 189.473C139.531 190.974 139.211 192.584 139.211 194.209V256H79.9719C78.7532 256 77.5552 255.686 76.4941 255.087C75.433 254.488 74.5449 253.625 73.9159 252.582C73.2868 251.539 72.9383 250.352 72.904 249.135C72.8697 247.917 73.1508 246.712 73.7201 245.635L136.418 127.071C137.2 125.592 137.674 123.971 137.811 122.305C137.948 120.639 137.746 118.962 137.217 117.376C136.688 115.79 135.843 114.328 134.732 113.077C133.622 111.826 132.269 110.814 130.756 110.1L127.055 108.353C124.181 106.998 120.895 106.797 117.878 107.794C114.86 108.791 112.341 110.909 110.843 113.71L34.3745 256.635C33.0724 259.068 32.3911 261.786 32.3911 264.545C32.3911 266.749 32.8255 268.931 33.6695 270.967C34.5135 273.003 35.7506 274.852 37.3102 276.411C38.8697 277.969 40.7211 279.205 42.7587 280.048C44.7964 280.891 46.9803 281.325 49.1858 281.325H139.211V320.398C139.211 322.346 139.595 324.275 140.341 326.075C141.087 327.875 142.181 329.51 143.559 330.887C144.938 332.265 146.575 333.357 148.376 334.103C150.177 334.848 152.108 335.232 154.057 335.232H154.057C156.007 335.232 157.937 334.848 159.739 334.103C161.54 333.357 163.176 332.265 164.555 330.887C165.934 329.51 167.027 327.875 167.773 326.075C168.519 324.275 168.903 322.346 168.903 320.398V281.325H189.905C193.266 281.325 196.49 279.991 198.867 277.617C201.244 275.242 202.579 272.021 202.579 268.663C202.579 265.305 201.244 262.084 198.867 259.709C196.49 257.334 193.266 256 189.905 256Z" fill="#50FA7B"/>
<path d="M578.802 256H557.8V194.209C557.8 190.927 556.495 187.779 554.173 185.458C551.85 183.138 548.7 181.834 545.415 181.834H540.494C538.867 181.834 537.257 182.154 535.754 182.776C534.251 183.398 532.886 184.309 531.736 185.458C530.586 186.607 529.673 187.972 529.051 189.473C528.428 190.974 528.108 192.584 528.108 194.209V256H468.869C467.65 256 466.452 255.686 465.391 255.087C464.33 254.488 463.442 253.625 462.813 252.582C462.184 251.539 461.835 250.352 461.801 249.135C461.767 247.917 462.048 246.712 462.617 245.635L525.315 127.071C526.097 125.592 526.571 123.971 526.708 122.305C526.845 120.639 526.643 118.962 526.114 117.376C525.585 115.79 524.74 114.328 523.629 113.077C522.519 111.826 521.166 110.814 519.653 110.1L515.952 108.353C513.078 106.998 509.792 106.797 506.774 107.794C503.757 108.791 501.238 110.909 499.74 113.71L423.271 256.635C421.969 259.068 421.288 261.786 421.288 264.545C421.288 268.996 423.058 273.264 426.207 276.411C429.357 279.557 433.629 281.325 438.083 281.325H528.108V320.398C528.108 324.332 529.672 328.105 532.456 330.887C535.241 333.669 539.017 335.232 542.954 335.232C546.892 335.232 550.668 333.669 553.452 330.887C556.236 328.105 557.8 324.332 557.8 320.398V281.325H578.802C582.163 281.325 585.387 279.991 587.764 277.617C590.14 275.242 591.476 272.021 591.476 268.663C591.476 265.305 590.14 262.084 587.764 259.709C585.387 257.334 582.163 256 578.802 256Z" fill="#50FA7B"/>
<path d="M195.699 248.765H174.697V186.973C174.697 185.348 174.377 183.739 173.754 182.237C173.132 180.736 172.22 179.372 171.069 178.223C169.919 177.073 168.554 176.162 167.051 175.54C165.549 174.918 163.938 174.598 162.311 174.598H157.39C154.105 174.598 150.955 175.902 148.632 178.223C146.31 180.543 145.005 183.691 145.005 186.973V248.765H85.7656C84.5469 248.765 83.3489 248.45 82.2878 247.851C81.2268 247.252 80.3386 246.389 79.7096 245.346C79.0805 244.303 78.732 243.116 78.6977 241.899C78.6634 240.682 78.9445 239.476 79.5138 238.4L142.212 119.835C142.994 118.357 143.467 116.736 143.605 115.069C143.742 113.403 143.54 111.726 143.011 110.14C142.482 108.554 141.636 107.092 140.526 105.841C139.415 104.591 138.063 103.578 136.55 102.864L132.848 101.118C129.974 99.7618 126.689 99.5615 123.671 100.558C120.654 101.555 118.135 103.673 116.637 106.474L40.1682 249.399C38.8661 251.833 38.1848 254.55 38.1848 257.31V257.31C38.1848 261.76 39.9542 266.028 43.1039 269.175C46.2535 272.322 50.5253 274.09 54.9795 274.09H145.005V313.163C145.005 315.111 145.389 317.039 146.135 318.839C146.881 320.639 147.974 322.274 149.353 323.651C150.732 325.029 152.368 326.121 154.17 326.867C155.971 327.612 157.901 327.996 159.851 327.996H159.851C163.788 327.996 167.565 326.433 170.349 323.651C173.133 320.87 174.697 317.097 174.697 313.163V274.09H195.699C197.363 274.09 199.011 273.762 200.549 273.126C202.087 272.489 203.484 271.557 204.66 270.381C205.837 269.205 206.771 267.809 207.408 266.273C208.045 264.737 208.372 263.09 208.372 261.427V261.427C208.372 259.764 208.045 258.118 207.408 256.581C206.771 255.045 205.837 253.649 204.661 252.473C203.484 251.297 202.087 250.365 200.549 249.728C199.011 249.092 197.363 248.765 195.699 248.765V248.765Z" stroke="#424549" stroke-miterlimit="10"/>
<path d="M589.665 248.765H568.663V186.973C568.663 183.691 567.358 180.543 565.036 178.223C562.713 175.902 559.563 174.598 556.278 174.598H551.357C549.73 174.598 548.12 174.918 546.617 175.54C545.114 176.162 543.749 177.073 542.599 178.223C541.449 179.372 540.536 180.736 539.914 182.237C539.291 183.739 538.971 185.348 538.971 186.973V248.765H479.732C478.513 248.765 477.315 248.45 476.254 247.851C475.193 247.252 474.305 246.389 473.676 245.346C473.047 244.303 472.698 243.116 472.664 241.899C472.63 240.682 472.911 239.476 473.48 238.4L536.178 119.835C536.96 118.357 537.434 116.736 537.571 115.069C537.708 113.403 537.506 111.726 536.977 110.14C536.448 108.554 535.603 107.092 534.492 105.841C533.382 104.591 532.029 103.578 530.516 102.864L526.815 101.118C523.941 99.7618 520.655 99.5615 517.637 100.558C514.62 101.555 512.101 103.673 510.603 106.474L434.135 249.399C432.832 251.833 432.151 254.55 432.151 257.31C432.151 261.76 433.921 266.028 437.07 269.175C440.22 272.322 444.492 274.09 448.946 274.09H538.971V313.163C538.971 317.097 540.535 320.87 543.319 323.651C546.104 326.433 549.88 327.996 553.817 327.996V327.996C557.755 327.996 561.531 326.433 564.315 323.651C567.099 320.87 568.663 317.097 568.663 313.163V274.09H589.665C591.33 274.09 592.977 273.762 594.515 273.126C596.053 272.489 597.45 271.557 598.627 270.381C599.804 269.205 600.737 267.809 601.374 266.273C602.011 264.737 602.339 263.09 602.339 261.427V261.427C602.339 258.069 601.004 254.848 598.627 252.473C596.25 250.099 593.026 248.765 589.665 248.765V248.765Z" stroke="#424549" stroke-miterlimit="10"/>
<path d="M319.175 92.1104C268.38 92.1104 231.909 124.671 231.909 200.647C231.909 286.752 268.38 309.545 319.175 309.545C369.971 309.545 408.615 284.581 408.615 200.647C408.615 110.923 369.971 92.1104 319.175 92.1104ZM319.509 280.964C284.327 280.964 265.947 260.341 265.947 200.702C265.947 148.08 285.079 120.33 320.262 120.33C355.444 120.33 374.577 138.558 374.577 200.702C374.577 258.837 354.692 280.964 319.509 280.964V280.964Z" stroke="#424549" stroke-miterlimit="10"/>
<path d="M278.459 18.3956C282.671 18.3956 286.085 14.9848 286.085 10.7772C286.085 6.56972 282.671 3.15884 278.459 3.15884C274.248 3.15884 270.834 6.56972 270.834 10.7772C270.834 14.9848 274.248 18.3956 278.459 18.3956Z" fill="#36393E"/>
<path d="M297.057 55.3728C308.869 55.3728 318.444 42.9771 318.444 27.6864C318.444 12.3956 308.869 0 297.057 0C285.245 0 275.67 12.3956 275.67 27.6864C275.67 42.9771 285.245 55.3728 297.057 55.3728Z" fill="#36393E"/>
<path opacity="0.1" d="M297.057 47.0111C286.343 47.0111 277.47 36.8125 275.913 23.5056C275.751 24.8933 275.67 26.2893 275.67 27.6864C275.67 42.9771 285.245 55.3728 297.057 55.3728C308.869 55.3728 318.444 42.9772 318.444 27.6864C318.445 26.2893 318.364 24.8933 318.202 23.5056C316.645 36.8125 307.771 47.0111 297.057 47.0111Z" fill="black"/>
<path d="M340.578 108.767C340.118 110.653 338.138 112.163 335.945 113.218C331.334 115.437 325.646 116.099 320.129 116.321C318.722 116.407 317.31 116.38 315.906 116.243C313.187 115.98 310.636 114.809 308.666 112.918C308.525 112.826 308.41 112.7 308.331 112.552C308.252 112.404 308.212 112.239 308.215 112.071C308.218 111.903 308.263 111.739 308.346 111.593C308.429 111.448 308.548 111.326 308.692 111.238C311.629 108.015 316.53 106.038 321.468 104.615C325.211 103.536 331.74 100.741 335.824 101.118C339.779 101.483 341.158 106.386 340.578 108.767Z" fill="#424549"/>
<path opacity="0.1" d="M340.578 108.767C340.118 110.653 338.138 112.163 335.945 113.218C331.334 115.437 325.646 116.099 320.129 116.321C318.722 116.407 317.31 116.38 315.906 116.243C313.187 115.98 310.636 114.809 308.666 112.918C308.525 112.826 308.41 112.7 308.331 112.552C308.252 112.404 308.212 112.239 308.215 112.071C308.218 111.903 308.263 111.739 308.346 111.593C308.429 111.448 308.548 111.326 308.692 111.238C311.629 108.015 316.53 106.038 321.468 104.615C325.211 103.536 331.74 100.741 335.824 101.118C339.779 101.483 341.158 106.386 340.578 108.767Z" fill="black"/>
<path d="M281.948 94.673C280.541 97.4292 280.286 100.631 281.24 103.575C282.21 106.497 284.026 109.065 286.458 110.955C292.424 115.733 300.636 116.39 308.282 116.324C314.983 116.266 321.675 115.807 328.321 114.952C330.548 114.755 332.737 114.247 334.823 113.443C337.319 112.365 339.512 110.386 340.4 107.818C341.289 105.251 340.658 102.106 338.548 100.393C336.694 98.8872 334.137 98.6801 331.752 98.5369L318.107 97.7176C319.455 96.3544 321.25 95.5834 322.892 94.5924C325.07 93.2777 326.517 91.0703 328.101 89.0801C330.541 86.1663 333.196 83.4389 336.043 80.9209C336.487 83.4663 338.099 85.5564 339.996 87.3127C341.892 89.0689 344.079 90.4829 346.05 92.155C350.825 96.205 354.263 101.702 359.285 105.442C362.739 104.535 365.968 102.924 368.77 100.711L366.818 97.1785C366.656 96.8149 366.402 96.4992 366.083 96.2615C365.53 95.9219 364.818 96.0969 364.177 96.0008C362.462 95.7439 361.713 93.7663 361.041 92.1699C359.194 87.7872 355.657 84.3869 352.637 80.7116C350.408 77.9985 348.431 75.0885 346.729 72.0174C345.715 70.1859 344.786 68.2788 343.409 66.7009C342.033 65.1229 340.103 63.8823 338.008 63.8779C336.157 63.874 334.45 64.813 332.858 65.7575C328.01 68.6346 323.346 71.8096 318.892 75.2643C316.561 77.0723 314.244 78.9825 311.51 80.0912C310.359 80.5579 309.146 80.8769 308.041 81.4448C306.107 82.4394 304.638 84.1224 303.058 85.6163C297.421 90.9446 289.703 94.3969 281.948 94.673Z" fill="#424549"/>
<path d="M310.481 56.7478C310.417 58.3765 310.071 59.9818 309.456 61.4916C309.145 62.2447 308.681 62.9255 308.095 63.4917C307.508 64.0579 306.811 64.4972 306.047 64.7824C304.962 65.0728 303.825 65.1097 302.724 64.8902C301.763 64.7899 300.838 64.4749 300.016 63.9685C298.736 63.0896 298.099 61.5213 297.866 59.9865C297.634 58.4535 297.738 56.8871 297.589 55.343C297.444 54.0958 297.207 52.8611 296.879 51.649C296.778 51.2458 296.676 50.8445 296.575 50.4431C296.477 50.0417 296.38 49.6404 296.291 49.239C296.209 48.8618 296.133 48.4827 296.068 48.1018C296.014 47.7804 295.965 47.457 295.93 47.1319C295.897 46.1679 295.737 45.2125 295.452 44.2908C295.185 43.693 294.85 43.1276 294.455 42.6054C294.286 42.3639 294.122 42.1223 293.972 41.8715C293.536 41.2196 293.334 40.4397 293.397 39.6584C293.415 39.5376 293.444 39.4188 293.484 39.3035C293.499 39.2589 293.516 39.2143 293.535 39.1716C293.702 39.1262 293.856 39.0407 293.982 38.9225C294.109 38.8043 294.205 38.657 294.262 38.4933C294.326 38.1418 294.296 37.7796 294.174 37.4435C294.036 36.9738 293.845 36.5208 293.607 36.0926C293.451 35.8102 292.921 35.301 292.917 34.9777C292.91 34.3274 294.182 33.8034 294.697 33.5469C296.27 32.7602 298.023 32.405 299.778 32.5175C300.903 32.5937 302.123 32.9393 302.744 33.8814C303.302 34.7306 303.228 35.8306 303.466 36.8173C303.491 36.9607 303.552 37.0955 303.642 37.2093C303.764 37.3198 303.917 37.3899 304.08 37.41C304.355 37.4648 304.637 37.4761 304.916 37.4435H304.918C304.992 37.4376 305.065 37.4271 305.138 37.4119C305.572 37.3318 305.983 37.1546 306.339 36.8935C306.57 36.8321 306.802 36.782 307.037 36.7429C307.046 36.742 307.055 36.7401 307.064 36.7374C307.996 39.6751 308.117 42.8246 308.88 45.8163C309.257 47.3046 309.798 48.7744 309.875 50.3055C309.88 50.3724 309.882 50.4412 309.884 50.5099C309.895 51.0023 309.856 51.4985 309.876 51.989C309.884 52.2099 309.908 52.4299 309.951 52.6468C310.034 52.9957 310.138 53.3394 310.261 53.6762L310.267 53.6929C310.302 53.8007 310.336 53.9104 310.364 54.02C310.384 54.0999 310.403 54.1779 310.418 54.2578L310.419 54.2634C310.557 55.0845 310.578 55.9209 310.481 56.7478Z" fill="#FBBEBE"/>
<path d="M297.429 37.5346C303.489 37.5346 308.402 32.6262 308.402 26.5715C308.402 20.5168 303.489 15.6084 297.429 15.6084C291.369 15.6084 286.457 20.5168 286.457 26.5715C286.457 32.6262 291.369 37.5346 297.429 37.5346Z" fill="#FBBEBE"/>
<path d="M367.092 86.3035C366.774 83.3124 365.71 80.449 363.997 77.9752C364.282 79.6662 364.567 81.3565 364.853 83.0461C364.498 83.1488 364.12 83.1457 363.767 83.0371C363.413 82.9285 363.099 82.7192 362.863 82.4348C362.401 81.8584 362.047 81.203 361.82 80.5005C360.573 77.4085 358.943 74.4851 356.967 71.7988C349.982 71.2172 343.077 68.324 336.934 64.9515C330.789 61.5808 325.039 57.5394 318.976 54.0256C317.925 53.3908 316.83 52.8319 315.699 52.3533C313.802 51.5933 311.673 51.1993 309.875 50.3056C309.754 50.2461 309.633 50.1829 309.514 50.1179C309.108 49.8971 308.723 49.639 308.364 49.3468C308.171 49.1897 307.987 49.0209 307.814 48.8413C306.917 47.7984 306.205 46.6092 305.711 45.3257C304.745 43.1926 304.401 40.6191 303.438 38.4859C303.881 38.0725 304.378 37.7217 304.916 37.4435H304.918C304.996 37.4026 305.075 37.3636 305.155 37.3264C305.536 37.1471 305.932 37.0022 306.339 36.8935C306.57 36.8322 306.802 36.782 307.037 36.743C307.046 36.742 307.055 36.7401 307.065 36.7374C308.151 36.5605 309.264 36.6485 310.31 36.9938C311.839 37.5104 313.127 38.5417 314.412 39.5172C316.5 40.9867 318.503 42.5737 320.41 44.2703C321.47 45.2848 322.437 46.3997 323.577 47.3214C324.525 48.0519 325.523 48.7133 326.566 49.3003C332.735 52.972 338.904 56.6431 345.074 60.3135C347.163 61.5566 349.253 62.7997 351.295 64.1153C354.397 66.1147 357.388 68.2813 360.376 70.446C362.138 71.7207 363.898 72.996 365.658 74.2719C366.236 74.64 366.743 75.1082 367.155 75.6544C367.52 76.2746 367.746 76.9661 367.819 77.6816C368.261 80.5727 368.012 83.5271 367.092 86.3035Z" fill="#FBBEBE"/>
<path d="M313.202 64.9924C312.461 68.3092 309.106 70.3141 307.353 73.2277C305.173 76.8436 306.062 81.0468 306.88 85.1886C305.385 86.4763 303.889 87.764 302.393 89.0517C301.567 89.7596 300.741 90.4713 299.852 91.0975C298.556 91.9653 297.201 92.7426 295.798 93.4239C294.474 94.104 293.15 94.7847 291.826 95.466C290.595 96.1575 289.29 96.7097 287.937 97.1123C285.328 97.7812 282.557 97.313 279.975 96.5381C279.671 96.4584 279.378 96.339 279.105 96.1832C278.944 96.0873 278.803 95.9603 278.692 95.8097C278.437 95.3539 278.345 94.8253 278.43 94.3102C278.692 89.9696 279.754 85.72 280.812 81.502C281.378 78.9715 282.138 76.4884 283.087 74.075C284.017 72.007 285.086 70.0043 286.287 68.0806C287.613 65.6602 289.183 63.382 290.974 61.2817C291.846 60.4733 292.579 59.528 293.146 58.4833C293.806 56.9782 293.551 55.252 293.685 53.6131C293.788 52.3817 294.115 51.1795 294.651 50.0659V50.064C294.937 49.4642 295.282 48.894 295.681 48.362C295.861 48.7819 296.042 49.2012 296.222 49.6199C296.341 49.8949 296.459 50.1693 296.575 50.4431C296.728 50.7962 296.879 51.148 297.029 51.4985C297.462 52.5057 297.895 53.5122 298.327 54.518C298.794 55.7849 299.46 56.9697 300.299 58.0281C300.682 58.57 301.2 59.0033 301.801 59.2857C302.402 59.568 303.066 59.6898 303.729 59.639C304.391 59.5883 305.029 59.3668 305.58 58.9962C306.131 58.6256 306.577 58.1185 306.873 57.5245C307.498 56.4157 307.951 55.2184 308.216 53.9736C308.583 52.4579 308.634 50.8829 308.364 49.3468C307.916 46.3886 306.657 43.3673 305.742 40.6191C305.37 39.7028 305.154 38.7304 305.104 37.7427C305.106 37.6317 305.117 37.521 305.138 37.4119C305.143 37.3841 305.149 37.3543 305.154 37.3265C305.536 37.1471 305.932 37.0022 306.339 36.8935C306.57 36.8322 306.802 36.782 307.036 36.743C307.842 41.0985 308.648 45.454 309.456 49.8095C309.475 49.9117 309.495 50.0139 309.514 50.1179C309.629 50.7423 309.746 51.3666 309.876 51.9891C309.994 52.554 310.12 53.117 310.261 53.6763L310.267 53.693C310.315 53.8826 310.365 54.0702 310.418 54.2579L310.419 54.2635C310.563 54.7763 310.723 55.2854 310.903 55.7871C311.996 58.8103 313.903 61.854 313.202 64.9924Z" fill="#50FA7B"/>
<path d="M357.732 111.604C357.698 112.243 357.822 112.88 358.093 113.46C358.78 114.714 360.427 114.999 361.853 115.116C370.182 115.8 378.562 115.545 386.834 114.356C387.282 114.325 387.718 114.19 388.105 113.962C389.281 113.138 388.556 111.13 387.272 110.487C385.988 109.845 384.464 109.999 383.055 109.721C381.655 109.369 380.322 108.791 379.108 108.011C376.251 106.371 373.435 104.66 370.66 102.88C369.009 101.821 367.059 100.69 365.199 101.318C360.161 103.021 357.699 106.173 357.732 111.604Z" fill="#424549"/>
<path d="M296.334 49.0068V49.0086C296.321 49.0866 296.308 49.1628 296.291 49.239C296.27 49.3654 296.246 49.4936 296.222 49.6199C295.991 50.7998 295.709 51.9742 295.383 53.1411C294.491 56.365 293.295 59.5368 292.108 62.6622C288.924 71.0425 285.74 79.4233 282.555 87.8048C281.751 89.9157 280.95 92.0284 280.037 94.0965C279.732 94.7859 279.417 95.4808 279.105 96.1832C277.985 98.6972 276.91 101.293 276.553 103.969C276.22 105.73 276.182 107.534 276.44 109.307C276.797 111.061 277.863 112.775 279.531 113.423C280.345 113.741 281.511 114.166 281.288 115.012C281.167 115.476 280.639 115.703 280.165 115.781C279.539 115.881 278.898 115.842 278.289 115.666C277.679 115.491 277.116 115.184 276.639 114.767C275.748 113.977 275.064 112.749 273.879 112.617C273.059 112.527 272.304 113.018 271.552 113.362C268.487 114.761 264.917 113.782 261.698 112.788C261.95 111.485 263.26 110.627 264.56 110.366C265.86 110.104 267.204 110.29 268.53 110.255C268.955 110.278 269.376 110.169 269.737 109.945C270.061 109.648 270.288 109.261 270.388 108.833C271.242 106.305 271.878 103.707 272.287 101.07C272.715 98.3145 272.893 95.5161 273.503 92.7939C273.977 90.6701 274.71 88.6131 275.339 86.5283C276.554 82.2357 277.552 77.8846 278.329 73.4915C278.722 71.6664 279.003 69.8191 279.172 67.9598C279.278 66.4176 279.228 64.8679 279.376 63.3312C279.626 61.3319 280.043 59.3572 280.624 57.4279C281.193 55.3226 281.762 53.2185 282.33 51.1157C283.172 48.0033 284.076 44.7702 286.211 42.3509C286.952 41.4992 287.861 40.8087 288.881 40.3222C289.9 39.8357 291.009 39.5636 292.138 39.5228C292.561 39.5223 292.984 39.5677 293.397 39.6584C293.466 39.6751 293.535 39.6918 293.603 39.7104C294.054 39.8281 294.486 40.007 294.889 40.2419C295.547 39.8238 295.882 39.9706 296.319 40.6153C296.702 41.2977 296.883 42.075 296.839 42.8563C296.876 44.9182 296.707 46.9785 296.334 49.0068Z" fill="#FBBEBE"/>
<path d="M297.057 51.4707L297.029 51.4985L296.878 51.649L295.383 53.1411L294.65 50.0659L292.138 39.5228C292.561 39.5222 292.983 39.5677 293.397 39.6584C293.415 39.5376 293.444 39.4188 293.484 39.3035L293.603 39.7104L294.455 42.6054L296.068 48.1018L296.334 49.0067V49.0086L297.057 51.4707Z" fill="#50FA7B"/>
<path d="M306.546 17.8354C306.544 18.8116 306.35 19.778 305.975 20.6794C305.6 21.5808 305.051 22.3994 304.358 23.0885C304.108 23.3393 303.839 23.5715 303.555 23.7832C302.271 24.7498 300.708 25.273 299.101 25.2737H290.179C288.207 25.2707 286.317 24.486 284.924 23.0921C283.531 21.6981 282.749 19.8088 282.749 17.839C282.749 15.8691 283.531 13.9798 284.924 12.5859C286.317 11.1919 288.207 10.4073 290.179 10.4042H299.101C301.072 10.4094 302.962 11.1937 304.357 12.586C305.752 13.9783 306.538 15.8654 306.546 17.8354Z" fill="#36393E"/>
<path d="M314.911 18.3956C319.122 18.3956 322.536 14.9848 322.536 10.7772C322.536 6.56972 319.122 3.15884 314.911 3.15884C310.699 3.15884 307.286 6.56972 307.286 10.7772C307.286 14.9848 310.699 18.3956 314.911 18.3956Z" fill="#36393E"/>
<path opacity="0.1" d="M314.725 3.15885C314.631 3.15885 314.539 3.16256 314.446 3.1659C316.418 3.23754 318.286 4.07082 319.656 5.49039C321.026 6.90997 321.792 8.80517 321.792 10.7773C321.792 12.7493 321.026 14.6445 319.656 16.0641C318.286 17.4837 316.418 18.317 314.446 18.3886C314.539 18.3919 314.631 18.3956 314.725 18.3956C316.747 18.3956 318.686 17.593 320.116 16.1643C321.546 14.7355 322.35 12.7978 322.35 10.7773C322.35 8.75673 321.546 6.81896 320.116 5.39023C318.686 3.9615 316.747 3.15885 314.725 3.15885Z" fill="black"/>
<path opacity="0.1" d="M278.459 3.15885C278.553 3.15885 278.646 3.16256 278.738 3.1659C276.766 3.23754 274.898 4.07082 273.528 5.49039C272.158 6.90997 271.392 8.80517 271.392 10.7773C271.392 12.7493 272.158 14.6445 273.528 16.0641C274.898 17.4837 276.766 18.317 278.738 18.3886C278.646 18.3919 278.553 18.3956 278.459 18.3956C276.438 18.3939 274.501 17.5904 273.072 16.1619C271.643 14.7334 270.841 12.7966 270.841 10.7773C270.841 8.75789 271.643 6.82113 273.072 5.3926C274.501 3.96406 276.438 3.16063 278.459 3.15885Z" fill="black"/>
<path opacity="0.1" d="M303.554 23.7832C302.271 24.7498 300.708 25.273 299.101 25.2737H290.178C288.571 25.273 287.008 24.7498 285.725 23.7832H303.554Z" fill="black"/>
<path d="M361.171 78.9855C361.171 78.9855 363.093 84.5196 364.853 83.0461L363.45 75.8124L361.171 78.9855Z" fill="#FBBEBE"/>
<path d="M595.089 247.752C596.879 248.403 598.796 248.629 600.689 248.412C602.582 248.196 604.398 247.544 605.996 246.506C607.593 245.469 608.927 244.075 609.893 242.435C610.859 240.794 611.431 238.952 611.563 237.053C611.695 235.154 611.384 233.251 610.654 231.493C609.924 229.735 608.795 228.17 607.357 226.922C605.918 225.674 604.209 224.777 602.365 224.301C600.52 223.826 598.59 223.785 596.727 224.182L597.035 230.507L594.039 225.086C591.099 226.466 588.828 228.956 587.725 232.009C587.333 233.078 587.095 234.197 587.017 235.333C586.828 237.999 587.514 240.653 588.97 242.894C590.427 245.135 592.575 246.841 595.089 247.752Z" fill="#6C63FF"/>
<path d="M609.91 321.121C608.853 315.741 613.435 310.971 617.96 307.871C622.486 304.771 627.775 301.725 629.319 296.464C631.538 288.903 624.927 281.979 619.782 276.008C615.965 271.576 612.687 266.709 610.016 261.506C608.946 259.42 607.962 257.239 607.68 254.912C607.275 251.561 608.352 248.226 609.438 245.029C613.055 234.379 616.922 223.819 621.039 213.347" stroke="#424549" stroke-miterlimit="10"/>
<path d="M595.595 246.124C597.386 246.774 599.303 247 601.196 246.784C603.088 246.568 604.905 245.915 606.502 244.878C608.099 243.84 609.434 242.446 610.4 240.806C611.366 239.166 611.937 237.323 612.069 235.424C612.201 233.526 611.89 231.622 611.16 229.864C610.43 228.106 609.301 226.541 607.863 225.293C606.425 224.045 604.716 223.148 602.871 222.673C601.027 222.197 599.097 222.156 597.233 222.553L597.541 228.879L594.546 223.458C591.606 224.838 589.335 227.328 588.232 230.38C587.84 231.449 587.601 232.569 587.524 233.705C587.335 236.37 588.02 239.024 589.477 241.265C590.933 243.506 593.081 245.212 595.595 246.124V246.124Z" stroke="#424549" stroke-miterlimit="10"/>
<path d="M608.407 211.163C609.109 209.226 610.289 207.497 611.836 206.135C613.383 204.773 615.249 203.822 617.26 203.369L618.273 209.383L620.151 203.067C622.758 203.106 625.285 203.971 627.368 205.539C629.451 207.106 630.981 209.294 631.738 211.787C632.495 214.28 632.44 216.949 631.58 219.408C630.72 221.867 629.099 223.99 626.953 225.469C624.807 226.949 622.246 227.709 619.639 227.639C617.033 227.569 614.516 226.674 612.452 225.082C610.388 223.49 608.884 221.283 608.157 218.782C607.43 216.28 607.517 213.612 608.407 211.163H608.407Z" fill="#6C63FF"/>
<path d="M609.082 208.991C609.785 207.054 610.964 205.325 612.511 203.963C614.059 202.601 615.924 201.65 617.936 201.198L618.949 207.212L620.826 200.896C623.434 200.934 625.961 201.8 628.044 203.367C630.126 204.934 631.657 207.122 632.414 209.615C633.171 212.108 633.115 214.777 632.255 217.236C631.395 219.696 629.775 221.818 627.629 223.298C625.483 224.777 622.921 225.537 620.315 225.467C617.708 225.398 615.192 224.502 613.128 222.91C611.064 221.318 609.56 219.112 608.833 216.61C608.106 214.108 608.193 211.44 609.082 208.991H609.082Z" stroke="#424549" stroke-miterlimit="10"/>
<path d="M617.623 276.13C620.462 277.159 623.581 277.108 626.386 275.987C629.19 274.866 631.483 272.753 632.829 270.051C634.174 267.349 634.477 264.247 633.681 261.336C632.884 258.425 631.043 255.909 628.509 254.267L627.066 259.121L626.043 253.036C626.033 253.031 626.023 253.027 626.012 253.024C624.493 252.473 622.881 252.226 621.266 252.297C619.652 252.368 618.068 252.757 616.604 253.44C615.14 254.124 613.825 255.089 612.734 256.28C611.644 257.471 610.799 258.866 610.248 260.384C609.697 261.901 609.45 263.513 609.523 265.125C609.595 266.738 609.985 268.321 610.67 269.783C611.355 271.246 612.321 272.559 613.514 273.648C614.707 274.737 616.104 275.58 617.623 276.13H617.623Z" fill="#6C63FF"/>
<path d="M618.208 273.93C621.048 274.959 624.167 274.908 626.971 273.787C629.775 272.666 632.069 270.554 633.414 267.852C634.76 265.15 635.063 262.048 634.266 259.137C633.469 256.226 631.629 253.71 629.094 252.068L627.652 256.921L626.629 250.837C626.618 250.832 626.608 250.828 626.597 250.825C625.078 250.273 623.466 250.026 621.852 250.098C620.237 250.169 618.653 250.558 617.189 251.241C615.725 251.924 614.41 252.889 613.32 254.081C612.229 255.272 611.384 256.666 610.833 258.184C610.282 259.702 610.036 261.313 610.108 262.926C610.181 264.539 610.57 266.122 611.255 267.584C611.94 269.046 612.907 270.359 614.1 271.448C615.293 272.537 616.689 273.381 618.208 273.93H618.208Z" stroke="#424549" stroke-miterlimit="10"/>
<path d="M604.817 296.54C605.305 299.315 606.734 301.839 608.863 303.687C610.993 305.535 613.693 306.595 616.512 306.69C619.331 306.785 622.097 305.908 624.346 304.208C626.595 302.507 628.19 300.085 628.864 297.349C629.538 294.612 629.25 291.727 628.048 289.178C626.845 286.629 624.803 284.57 622.261 283.347C619.72 282.124 616.836 281.811 614.091 282.461C611.347 283.111 608.909 284.683 607.188 286.916L612.668 295.157L605.18 290.783C604.599 292.645 604.475 294.619 604.817 296.54Z" fill="#6C63FF"/>
<path d="M605.324 294.911C605.812 297.686 607.24 300.21 609.37 302.058C611.499 303.906 614.2 304.967 617.019 305.061C619.838 305.156 622.603 304.28 624.852 302.579C627.101 300.878 628.696 298.456 629.37 295.72C630.044 292.984 629.756 290.099 628.554 287.55C627.352 285 625.309 282.941 622.768 281.718C620.227 280.495 617.342 280.182 614.598 280.832C611.853 281.482 609.416 283.055 607.694 285.287L613.175 293.529L605.686 289.154C605.106 291.016 604.981 292.991 605.324 294.911V294.911Z" stroke="#424549" stroke-miterlimit="10"/>
<path d="M5.32375 277.691C6.50008 278.119 7.75965 278.267 9.0032 278.125C10.2468 277.983 11.4403 277.554 12.4897 276.873C13.5391 276.191 14.4158 275.275 15.0505 274.197C15.6853 273.12 16.0608 271.909 16.1476 270.662C16.2343 269.414 16.0298 268.163 15.5502 267.008C15.0706 265.853 14.329 264.825 13.384 264.005C12.4389 263.185 11.3161 262.596 10.1041 262.283C8.89219 261.971 7.62416 261.944 6.40002 262.205L6.60231 266.361L4.63425 262.799C2.70271 263.706 1.21052 265.342 0.485585 267.347C0.22813 268.05 0.0716165 268.785 0.0207138 269.532C-0.103511 271.283 0.346979 273.027 1.30391 274.499C2.26085 275.972 3.67208 277.092 5.32375 277.691Z" fill="#6C63FF"/>
<path d="M15.0618 325.895C14.3671 322.361 17.3775 319.227 20.3511 317.19C23.3246 315.154 26.7991 313.152 27.8137 309.696C29.2718 304.728 24.9284 300.179 21.5479 296.256C19.0398 293.344 16.886 290.146 15.1315 286.728C14.3687 285.385 13.8491 283.918 13.5968 282.395C13.3302 280.193 14.0383 278.002 14.7516 275.902C17.1279 268.905 19.6686 261.966 22.3737 255.087" stroke="#424549" stroke-miterlimit="10"/>
<path d="M5.65652 276.621C6.83285 277.048 8.09242 277.197 9.33597 277.055C10.5795 276.913 11.773 276.484 12.8225 275.803C13.8719 275.121 14.7485 274.205 15.3833 273.127C16.0181 272.05 16.3936 270.839 16.4803 269.592C16.567 268.344 16.3625 267.093 15.8829 265.938C15.4033 264.783 14.6618 263.755 13.7167 262.935C12.7716 262.115 11.6489 261.526 10.4369 261.213C9.22496 260.901 7.95693 260.874 6.73279 261.135L6.93508 265.291L4.96702 261.729C3.03548 262.636 1.54328 264.272 0.818349 266.277C0.560897 266.98 0.404385 267.715 0.35348 268.462C0.229247 270.213 0.679734 271.957 1.63667 273.429C2.59361 274.902 4.00484 276.022 5.65652 276.621V276.621Z" stroke="#424549" stroke-miterlimit="10"/>
<path d="M14.074 253.651C14.5356 252.379 15.3104 251.243 16.327 250.348C17.3436 249.453 18.5692 248.828 19.891 248.531L20.5564 252.482L21.7901 248.332C23.503 248.358 25.1635 248.926 26.5319 249.956C27.9003 250.986 28.9058 252.423 29.4031 254.061C29.9005 255.699 29.864 257.453 29.2989 259.068C28.7338 260.684 27.6694 262.079 26.2593 263.051C24.8493 264.023 23.1665 264.522 21.454 264.476C19.7415 264.43 18.0879 263.842 16.7319 262.796C15.3759 261.75 14.3877 260.301 13.91 258.657C13.4322 257.013 13.4896 255.26 14.074 253.651Z" fill="#6C63FF"/>
<path d="M14.5176 252.225C14.9792 250.952 15.754 249.816 16.7706 248.921C17.7872 248.026 19.0128 247.401 20.3346 247.104L21 251.055L22.2337 246.906C23.9466 246.931 25.6071 247.499 26.9755 248.529C28.3439 249.559 29.3494 250.997 29.8467 252.635C30.3441 254.272 30.3076 256.026 29.7425 257.642C29.1774 259.258 28.113 260.652 26.7029 261.624C25.2929 262.596 23.6101 263.095 21.8976 263.05C20.1851 263.004 18.5315 262.415 17.1755 261.369C15.8195 260.323 14.8313 258.874 14.3536 257.23C13.8758 255.586 13.9332 253.834 14.5176 252.225V252.225Z" stroke="#424549" stroke-miterlimit="10"/>
<path d="M20.129 296.336C21.9945 297.012 24.0438 296.978 25.8863 296.242C27.7288 295.505 29.2356 294.117 30.1196 292.342C31.0035 290.567 31.2028 288.529 30.6794 286.616C30.1559 284.704 28.9465 283.05 27.2814 281.971L26.3335 285.16L25.6613 281.163C25.6546 281.16 25.6478 281.157 25.6407 281.155C24.6429 280.792 23.5833 280.63 22.5225 280.677C21.4618 280.723 20.4206 280.979 19.4586 281.428C18.4966 281.877 17.6326 282.511 16.916 283.293C16.1993 284.076 15.6441 284.992 15.282 285.99C14.9199 286.987 14.7581 288.046 14.8058 289.105C14.8534 290.165 15.1096 291.205 15.5598 292.166C16.0099 293.127 16.6451 293.99 17.4291 294.705C18.2131 295.421 19.1306 295.975 20.129 296.336Z" fill="#6C63FF"/>
<path d="M20.5137 294.89C22.3793 295.567 24.4286 295.533 26.2711 294.797C28.1136 294.06 29.6204 292.672 30.5043 290.897C31.3883 289.122 31.5875 287.084 31.0641 285.171C30.5407 283.258 29.3312 281.605 27.6662 280.526L26.7182 283.715L26.046 279.718C26.0394 279.714 26.0325 279.712 26.0255 279.71C25.0278 279.348 23.9686 279.186 22.9084 279.234C21.8483 279.281 20.8078 279.537 19.8464 279.986C17.9049 280.893 16.4035 282.534 15.6726 284.547C14.9417 286.56 15.0412 288.78 15.9491 290.72C16.8569 292.66 18.4989 294.16 20.5137 294.89V294.89Z" stroke="#424549" stroke-miterlimit="10"/>
<path d="M11.7155 309.745C12.0362 311.569 12.9748 313.227 14.3738 314.441C15.7728 315.655 17.5471 316.352 19.3992 316.414C21.2513 316.477 23.0685 315.901 24.5461 314.783C26.0237 313.666 27.0718 312.075 27.5146 310.277C27.9574 308.479 27.7681 306.584 26.9782 304.909C26.1884 303.234 24.8462 301.881 23.1767 301.077C21.5071 300.274 19.6118 300.068 17.8086 300.495C16.0054 300.922 14.404 301.956 13.2728 303.422L16.8736 308.837L11.9536 305.963C11.5721 307.187 11.4905 308.484 11.7155 309.745Z" fill="#6C63FF"/>
<path d="M12.0482 308.675C12.369 310.499 13.3076 312.157 14.7066 313.371C16.1056 314.585 17.8799 315.282 19.732 315.344C21.5841 315.407 23.4013 314.831 24.8789 313.713C26.3565 312.596 27.4046 311.005 27.8474 309.207C28.2902 307.409 28.1008 305.514 27.311 303.839C26.5212 302.164 25.179 300.811 23.5094 300.007C21.8399 299.204 19.9446 298.998 18.1414 299.425C16.3382 299.852 14.7367 300.886 13.6056 302.352L17.2063 307.767L12.2864 304.893C11.9049 306.116 11.8232 307.414 12.0482 308.675V308.675Z" stroke="#424549" stroke-miterlimit="10"/>
<path d="M284.254 201.435C289.803 201.435 294.302 195.619 294.302 188.444C294.302 181.269 289.803 175.453 284.254 175.453C278.705 175.453 274.207 181.269 274.207 188.444C274.207 195.619 278.705 201.435 284.254 201.435Z" fill="#36393E"/>
<path d="M338.925 201.731C344.474 201.731 348.973 195.914 348.973 188.739C348.973 181.564 344.474 175.748 338.925 175.748C333.376 175.748 328.877 181.564 328.877 188.739C328.877 195.914 333.376 201.731 338.925 201.731Z" fill="#36393E"/>
<path d="M331.242 227.123C331.242 232.993 323.038 237.752 312.92 237.752C302.801 237.752 294.598 232.993 294.598 227.123C294.598 222.039 300.75 217.787 308.972 216.748C310.28 216.575 311.599 216.49 312.92 216.494C315.132 216.487 317.338 216.724 319.498 217.202C326.366 218.732 331.242 222.6 331.242 227.123Z" fill="#36393E"/>
<path d="M286.619 198.483C292.168 198.483 296.666 192.666 296.666 185.491C296.666 178.316 292.168 172.5 286.619 172.5C281.069 172.5 276.571 178.316 276.571 185.491C276.571 192.666 281.069 198.483 286.619 198.483Z" stroke="#424549" stroke-miterlimit="10"/>
<path d="M341.289 198.778C346.838 198.778 351.337 192.962 351.337 185.787C351.337 178.612 346.838 172.795 341.289 172.795C335.74 172.795 331.241 178.612 331.241 185.787C331.241 192.962 335.74 198.778 341.289 198.778Z" stroke="#424549" stroke-miterlimit="10"/>
<path d="M315.284 234.8C325.403 234.8 333.606 230.041 333.606 224.17C333.606 218.3 325.403 213.541 315.284 213.541C305.165 213.541 296.962 218.3 296.962 224.17C296.962 230.041 305.165 234.8 315.284 234.8Z" stroke="#424549" stroke-miterlimit="10"/>
<path d="M319.716 218.088C319.721 218.831 319.442 219.547 318.936 220.091C318.697 220.352 318.407 220.56 318.084 220.703C317.76 220.846 317.411 220.921 317.057 220.923H311.146C310.418 220.897 309.73 220.585 309.231 220.054C308.733 219.523 308.465 218.816 308.487 218.088C308.484 217.512 308.652 216.949 308.971 216.469C310.279 216.285 311.599 216.195 312.92 216.198C315.134 216.191 317.342 216.445 319.498 216.954C319.644 217.315 319.718 217.7 319.716 218.088Z" fill="#50FA7B"/>
<path d="M286.619 184.901C288.251 184.901 289.574 183.579 289.574 181.948C289.574 180.318 288.251 178.996 286.619 178.996C284.987 178.996 283.664 180.318 283.664 181.948C283.664 183.579 284.987 184.901 286.619 184.901Z" fill="#50FA7B"/>
<path d="M341.585 184.901C343.217 184.901 344.54 183.579 344.54 181.948C344.54 180.318 343.217 178.996 341.585 178.996C339.952 178.996 338.629 180.318 338.629 181.948C338.629 183.579 339.952 184.901 341.585 184.901Z" fill="#50FA7B"/>
<path opacity="0.3" d="M344.54 212.655C346.172 212.655 347.495 211.333 347.495 209.703C347.495 208.072 346.172 206.75 344.54 206.75C342.908 206.75 341.584 208.072 341.584 209.703C341.584 211.333 342.908 212.655 344.54 212.655Z" fill="#50FA7B"/>
<path opacity="0.3" d="M272.434 212.655C274.066 212.655 275.389 211.333 275.389 209.703C275.389 208.072 274.066 206.75 272.434 206.75C270.802 206.75 269.479 208.072 269.479 209.703C269.479 211.333 270.802 212.655 272.434 212.655Z" fill="#50FA7B"/>
</g>
<defs>
<clipPath id="clip0">
<rect width="635" height="345" fill="white"/>
</clipPath>
</defs>
</svg>
